<svg id="Grupo_133" data-name="Grupo 133" xmlns="http://www.w3.org/2000/svg" width="326.584" height="387.42" viewBox="0 0 326.584 387.42">
  <g id="Grupo_35" data-name="Grupo 35" transform="translate(0.367 27.223)">
    <path id="Caminho_49" data-name="Caminho 49" d="M912.642,325.163c-.05,125.8-3.575,150.429-35.164,178.615-12.372,11.04-35.124,33.969-100.773,45.385-19.707,3.43-43.278,5.819-71.586,6.541a238.525,238.525,0,0,1-31.851-1.182,166.1,166.1,0,0,1-22.514-3.935c-72.154-18.079-77.542-79.9-45.985-131.9a299.716,299.716,0,0,1,27.92-38.235c15.455-18.229,32.024-34.421,47.028-49.534,13.828-13.927,26.334-26.941,35.422-39.788a100.129,100.129,0,0,0,9.522-16.208c.582-1.279,1.174-2.548,1.766-3.8,1.944-4.088,3.94-8.018,5.956-11.778,3.79-7.059,7.649-13.512,11.373-19.288,2.968-4.612,5.85-8.789,8.531-12.5a205.882,205.882,0,0,1,16.057-19.884s.852-.4,2.431-1.055c.836-.352,1.887-.775,3.12-1.245.5-.191,1.017-.389,1.573-.592s1.125-.411,1.73-.628c.554-.193,1.132-.4,1.724-.6.7-.242,1.428-.483,2.185-.731.445-.143.9-.29,1.363-.433.274-.087.552-.175.83-.26l.32-.1a143.2,143.2,0,0,1,36.2-6.362C861.282,194.191,912.691,214.637,912.642,325.163Z" transform="translate(-586.424 -195.599)" fill="#eb4747"/>
  </g>
  <g id="Grupo_36" data-name="Grupo 36" transform="translate(134.372 339.814)">
    <path id="Caminho_50" data-name="Caminho 50" d="M678.26,359.346s1.035,8.432,2.4,12.15,8.813,12.3,5.669,20.553c-3.408,8.944-18.281.326-24.353-2.405s-4.685-7.679-5.331-13.745-3.609-6.227-2.515-10.493,7.726-12.428,7.726-12.428Z" transform="translate(-653.891 -352.978)" fill="#b7ceff"/>
  </g>
  <g id="Grupo_38" data-name="Grupo 38" transform="translate(141.5 335.403)">
    <g id="Grupo_37" data-name="Grupo 37">
      <path id="Caminho_51" data-name="Caminho 51" d="M661.185,350.757s-3.81,5.329-3.7,5.476,16.311,10.012,17.439,6.811a33.021,33.021,0,0,0,1.273-6.225Z" transform="translate(-657.48 -350.757)" fill="#eea886"/>
    </g>
  </g>
  <g id="Grupo_39" data-name="Grupo 39" transform="translate(64.141 351.873)">
    <path id="Caminho_52" data-name="Caminho 52" d="M644.656,359.319a61.3,61.3,0,0,0-9.383,10.994c-4.439,6.658-16.227,7.011-16.73,16.1s16.023,9.369,24.7,6.41,9.989-11.836,15.236-14.059,7.975-4.016,7.57-8.35-3.307-11.369-3.307-11.369a36.361,36.361,0,0,1-5.176,1.253A43.012,43.012,0,0,1,644.656,359.319Z" transform="translate(-618.532 -359.049)" fill="#b7ceff"/>
  </g>
  <g id="Grupo_40" data-name="Grupo 40" transform="translate(88.37 79.317)">
    <path id="Caminho_53" data-name="Caminho 53" d="M692.109,248.35s-3.325,19.779-6.006,32.842h0c-1.09,5.3-2.068,9.492-2.677,10.811-.769,1.663-7.011,8.364-14.649,16.233-13.407,13.8-31.118,31.178-31.118,31.178l-6.928-13.145s15.733-18.442,26.4-30.749c4.938-5.693,8.789-10.074,9.494-10.706,2.229-1.994,4.819-21.65,8.457-37.844s10.924-25.145,10.924-25.145Z" transform="translate(-630.731 -221.826)" fill="#e8e8e8"/>
  </g>
  <g id="Grupo_41" data-name="Grupo 41" transform="translate(88.37 153.012)">
    <path id="Caminho_54" data-name="Caminho 54" d="M668.777,271.645c-13.407,13.8-31.118,31.178-31.118,31.178l-6.928-13.145s15.733-18.442,26.4-30.749C660.4,260.532,666.4,264.357,668.777,271.645Z" transform="translate(-630.731 -258.929)" fill="#eea886"/>
  </g>
  <g id="Grupo_42" data-name="Grupo 42" transform="translate(90.265 346.085)">
    <path id="Caminho_55" data-name="Caminho 55" d="M632.464,356.135l-.779,6.058a29.874,29.874,0,0,0,18.087-.27l.194-5.385Z" transform="translate(-631.685 -356.135)" fill="#eea886"/>
  </g>
  <g id="Grupo_43" data-name="Grupo 43" transform="translate(122.055 68.051)">
    <path id="Caminho_56" data-name="Caminho 56" d="M738.826,342.335c.5,1.76-91.136,0-91.136,0s25.346-18.45,26.989-23.378-6.455-34.5-7.51-44.124c-.844-7.7-2.962-42.15,2.111-47.413,5.3-5.5,24.409-11.266,24.409-11.266l27.855,1.037a43.534,43.534,0,0,1,7.881,2.485c3.285,1.525,22.077,8.219,25.128,17.606s-18.75,39.574-18.75,39.574-.042,1.357-.107,3.581h0c-.083,2.963-.209,7.468-.324,12.356-.145,6.33-.272,13.3-.272,18.387C735.1,323.15,738.335,340.577,738.826,342.335Z" transform="translate(-647.69 -216.154)" fill="#e8e8e8"/>
  </g>
  <g id="Grupo_44" data-name="Grupo 44" transform="translate(57.548 189.489)">
    <path id="Caminho_57" data-name="Caminho 57" d="M770.859,282.041s12.465,18.305,12.64,30.8-22.121,54.359-25.493,60.345c-10.144,18-37.959,56.832-37.959,56.832s-4.795-.121-19.755-5.931c0,0,18.5-51.29,20.847-56.615,9.947-22.583,15.5-38.6,12.158-42.475s-12.464-7.756-15.105-10.044-48.637,8.694-53.455,9.943c-12.481,3.236-6.791,24.951-4.032,34.689,4.62,16.285,8.66,75.1,8.66,75.1s-8.89,3.79-23.783.59c0,0-29.237-106.207-30.172-116.768s-1.4-27.978,70.648-41.216Z" transform="translate(-615.213 -277.294)" fill="#303669"/>
  </g>
  <g id="Grupo_45" data-name="Grupo 45" transform="translate(156.223 7.159)">
    <path id="Caminho_58" data-name="Caminho 58" d="M684.366,185.877s-24.178-5.454-18.653,24.973,11.339,32.816,25.92,26.52,13.284-25.789,14.015-35.349S692.081,186.208,684.366,185.877Z" transform="translate(-664.893 -185.497)" fill="#eea886"/>
  </g>
  <g id="Grupo_46" data-name="Grupo 46" transform="translate(169.301 37.529)">
    <path id="Caminho_59" data-name="Caminho 59" d="M671.477,239.121s10.707,11.351,27.628,1.033c0,0-3.786-24.6-1.792-36.58s-22.079,18.563-22.079,18.563c.314.167.524,1.311.572,2.94a32.032,32.032,0,0,1-.25,4.874C675.06,233.933,673.821,238.142,671.477,239.121Z" transform="translate(-671.477 -200.787)" fill="#eea886"/>
  </g>
  <g id="Grupo_47" data-name="Grupo 47" transform="translate(154.817)">
    <path id="Caminho_60" data-name="Caminho 60" d="M705.169,221.189s-.622-9.587-4.123-9.887-4.038,3.561-4.038,3.561l-3.536.667s1.116-8.4-2.382-9.87-22.653,4.626-25.457,2.157-1.488-19.509,3.591-21.84,19.092-7.558,29.358-.606c0,0,8.008-.914,9.194,5.546S707.346,216.384,705.169,221.189Z" transform="translate(-664.185 -181.892)" fill="#3a3f47"/>
  </g>
  <g id="Grupo_48" data-name="Grupo 48" transform="translate(173.381 50.634)">
    <path id="Caminho_61" data-name="Caminho 61" d="M673.531,223.444c17.457-5.383,18.772-15.9,18.792-16.059-5.748,9.875-18.542,11.184-18.542,11.184A31.977,31.977,0,0,1,673.531,223.444Z" transform="translate(-673.531 -207.385)" fill="#a77860"/>
  </g>
  <g id="Grupo_49" data-name="Grupo 49" transform="translate(160.495 66.413)">
    <path id="Caminho_62" data-name="Caminho 62" d="M710.624,220.622s-12.785,25.45-33.44,23.807-3.519-27.225-2.582-27.462C675.635,216.707,695.787,211.688,710.624,220.622Z" transform="translate(-667.044 -215.329)" fill="#eea886"/>
  </g>
  <g id="Grupo_50" data-name="Grupo 50" transform="translate(111.57 185.08)">
    <path id="Caminho_63" data-name="Caminho 63" d="M642.411,282.938s63.283,7.8,101.625,1.293l-73.258-9.156S670.344,276.943,642.411,282.938Z" transform="translate(-642.411 -275.074)" fill="#e8e8e8"/>
  </g>
  <g id="Grupo_51" data-name="Grupo 51" transform="translate(154.19 182.198)">
    <path id="Caminho_64" data-name="Caminho 64" d="M668.583,273.623l-4.713,2.389s1.074,7.488,3.654,9.756l5.291-1.349S671.711,276.207,668.583,273.623Z" transform="translate(-663.869 -273.623)" fill="#eea886"/>
  </g>
  <g id="Grupo_52" data-name="Grupo 52" transform="translate(158.903 86.768)">
    <path id="Caminho_65" data-name="Caminho 65" d="M739.47,305.671c-.941,1.092-13.383,6.1-27.439,11.51l0,0c-19.2,7.4-40.857,14.394-40.857,14.394l-4.93-10.571s22.679-12.325,38.007-20.969c7.24-4.08,12.837-7.343,13.63-8.1,2.465-2.346,3.1-6.11,1.293-12.674s-5.991-36.733-6.457-40.253,1.17-12.908,9.973-13.379,13.284,2.018,13.284,2.018,2.208.918,3.851,22.275S741.7,303.091,739.47,305.671Z" transform="translate(-666.242 -225.577)" fill="#e8e8e8"/>
  </g>
  <g id="Grupo_53" data-name="Grupo 53" transform="translate(204.693 106.546)">
    <path id="Caminho_66" data-name="Caminho 66" d="M694.663,261.322h0c-.083,2.963-.209,7.468-.324,12.356-8.589-21.054-3.625-37.859-3.542-38.143C689.87,241.249,694.6,261.042,694.663,261.322Z" transform="translate(-689.296 -235.535)" fill="#b0b0b0"/>
  </g>
  <g id="Grupo_54" data-name="Grupo 54" transform="translate(139.68 117.117)">
    <path id="Caminho_67" data-name="Caminho 67" d="M660.626,262.423h0c-1.09,5.3-2.068,9.492-2.677,10.811-2.933-14.2-.294-32.378-.294-32.378C658.056,249.541,660.626,262.423,660.626,262.423Z" transform="translate(-656.564 -240.857)" fill="#b0b0b0"/>
  </g>
  <g id="Grupo_55" data-name="Grupo 55" transform="translate(158.903 161.229)">
    <path id="Caminho_68" data-name="Caminho 68" d="M712.031,280.209l0,0c-19.2,7.4-41.554,14.621-41.554,14.621l-4.233-10.8s22.679-12.324,38.007-20.968C704.249,263.066,709.826,265.785,712.031,280.209Z" transform="translate(-666.242 -263.066)" fill="#eea886"/>
  </g>
  <g id="Grupo_56" data-name="Grupo 56" transform="translate(67.59 192.298)">
    <path id="Caminho_69" data-name="Caminho 69" d="M710.217,280.033l-89.948-1.325,45.411,23.057Z" transform="translate(-620.269 -278.708)" fill="#444c94"/>
  </g>
  <g id="Grupo_57" data-name="Grupo 57" transform="translate(109.483 193.622)">
    <path id="Caminho_70" data-name="Caminho 70" d="M644.879,301.107l44.537-17.249v-4.483L641.36,296.708Z" transform="translate(-641.36 -279.375)" fill="#303669"/>
  </g>
  <g id="Grupo_59" data-name="Grupo 59" transform="translate(123.857 182.744)">
    <g id="Grupo_58" data-name="Grupo 58">
      <path id="Caminho_71" data-name="Caminho 71" d="M679.948,275.9s-5.619-.874-9.5-1.778c-3.007-.7-10.479.264-12.382,2.191s-7.959,15.367-9.1,16.188.588,2.719,2.6,1.764c0,0,1.847,5.881,6.4,3.681S665.609,290.94,668,290.1s16.279-5.117,16.279-5.117S683.526,274.474,679.948,275.9Z" transform="translate(-648.597 -273.898)" fill="#eea886"/>
    </g>
  </g>
  <g id="Grupo_61" data-name="Grupo 61" transform="translate(124.263 184.283)">
    <g id="Grupo_60" data-name="Grupo 60">
      <path id="Caminho_72" data-name="Caminho 72" d="M659.236,274.673a39.155,39.155,0,0,0-4.551,2.519c-.943.779-4.767,3.637-5.69,4.31s1.4,2.584,8.225-.371S659.236,274.673,659.236,274.673Z" transform="translate(-648.802 -274.673)" fill="#eea886"/>
    </g>
  </g>
  <g id="Grupo_62" data-name="Grupo 62" transform="translate(0 142.306)">
    <path id="Caminho_73" data-name="Caminho 73" d="M699.241,326.587l-26.75-73.048-86.252,1.408,25.495,67.318Z" transform="translate(-586.239 -253.539)" fill="#303669"/>
  </g>
  <g id="Grupo_63" data-name="Grupo 63" transform="translate(44.016 167.818)">
    <path id="Caminho_74" data-name="Caminho 74" d="M623.037,273.189c2.63,5.261,1.833,10.992-1.778,12.8s-8.674-1-11.308-6.259-1.835-10.99,1.776-12.8S620.4,267.926,623.037,273.189Z" transform="translate(-608.4 -266.384)" fill="#518afa"/>
  </g>
  <g id="Grupo_64" data-name="Grupo 64" transform="translate(187.49 26.566)">
    <path id="Caminho_75" data-name="Caminho 75" d="M680.858,197.61c.316-2.683,5.621-3.669,6.05.356s-2.409,11.089-4.425,10.394S680.419,201.311,680.858,197.61Z" transform="translate(-680.635 -195.267)" fill="#eea886"/>
  </g>
</svg>
