<svg xmlns="http://www.w3.org/2000/svg" xmlns:xlink="http://www.w3.org/1999/xlink" width="536.343" height="289.763" viewBox="0 0 536.343 289.763">
  <defs>
    <linearGradient id="linear-gradient" x1="0.502" y1="0.452" x2="0.499" y2="-0.078" gradientUnits="objectBoundingBox">
      <stop offset="0" stop-color="#ffebe3"/>
      <stop offset="1" stop-color="#eddad4"/>
    </linearGradient>
    <linearGradient id="linear-gradient-2" y1="0.5" x2="1" y2="0.5" gradientUnits="objectBoundingBox">
      <stop offset="0" stop-color="#40d5e6"/>
      <stop offset="1" stop-color="#57f"/>
    </linearGradient>
    <linearGradient id="linear-gradient-6" y1="0.5" x2="1" y2="0.5" gradientUnits="objectBoundingBox">
      <stop offset="0" stop-color="#ff9340"/>
      <stop offset="1" stop-color="#ffce45"/>
    </linearGradient>
    <linearGradient id="linear-gradient-7" y1="0.5" x2="1" y2="0.5" gradientUnits="objectBoundingBox">
      <stop offset="0" stop-color="#c97332"/>
      <stop offset="1" stop-color="#ffce45"/>
    </linearGradient>
  </defs>
  <g id="Grupo_132" data-name="Grupo 132" transform="translate(-58.727 -60.221)">
    <g id="Grupo_131" data-name="Grupo 131" transform="translate(58.727 60.222)">
      <path id="Caminho_12" data-name="Caminho 12" d="M88.321,346.385H575.945s38.4-1.88,18.544,17.95-96.264,15.1-143.629,43.49-39.752-13.408-101.921-15.772S96.971,385.739,95.256,368.389,67.654,346.788,88.321,346.385Z" transform="translate(-63.844 -127.909)" fill="url(#linear-gradient)"/>
      <g id="Grupo_6" data-name="Grupo 6" transform="translate(114.6 90.011)">
        <path id="Caminho_13" data-name="Caminho 13" d="M212.959,178.324c4.065-1.944,8.111,11,8.111,11,6.911,9.131,16.567-3.016,15.623,10.634-1.653,23.884,27.491,7.511,14.046,32.446s11.872,14.1,3.517,34.206,2.474,44.087-10.1,34.232c0,0-11.07-24.275-22.487-31.785s6.84-16.423,3.268-26.625c-5.188-14.817-17.689-14.234-8.676-30.158S199.139,184.933,212.959,178.324Z" transform="translate(-208.84 -178.125)" fill="url(#linear-gradient-2)"/>
        <g id="Grupo_2" data-name="Grupo 2" transform="translate(16.365 25.321)">
          <path id="Caminho_14" data-name="Caminho 14" d="M253.211,299.551c-5.45-3.832-11.827-30.539-12.208-46.448-.2-8.149-2.6-11.544-4.729-14.539-2.031-2.863-3.786-5.336-2.764-11.012,1.954-10.851-3.181-15.535-3.233-15.579l.594-.679c.229.2,5.576,5.031,3.527,16.418-.956,5.3.619,7.523,2.612,10.331,2.09,2.947,4.694,6.615,4.894,15.038.409,17.073,6.93,42.29,11.826,45.734Z" transform="translate(-230.276 -211.293)" fill="#fff"/>
        </g>
        <g id="Grupo_3" data-name="Grupo 3" transform="translate(34.587 62.06)">
          <path id="Caminho_15" data-name="Caminho 15" d="M260.9,312.916a11.569,11.569,0,0,1-2.3-.25,5.024,5.024,0,0,1-4.093-3.293c-1.47-4.2,1.935-11.025,4.7-14.316a21.006,21.006,0,0,0,4.177-13.539c-.083-1.312-.218-2.529-.339-3.6-.347-3.1-.6-5.34.733-6.836,1.173-1.318,3.438-1.889,7.573-1.909,7.253-.034,10.121-3.037,12.425-5.449a13.161,13.161,0,0,1,3.026-2.606h0c3.614-1.973,7.443-2.263,9.1-.69.789.748,1.454,2.212.148,4.943a19.069,19.069,0,0,1-3.987,5.344c-1.673,1.709-2.779,2.837-2.2,5.086.134.528.29,1.06.447,1.6,1.118,3.825,2.386,8.159-4.16,11.1-1.389.623-2.653,1.121-3.77,1.559-4.569,1.792-7.327,2.875-10.44,9.447-.6,1.272-1.134,2.477-1.649,3.643C267.826,308.708,265.968,312.915,260.9,312.916Zm26.327-51.008a12.343,12.343,0,0,0-2.806,2.437c-2.422,2.536-5.437,5.692-13.072,5.73-3.8.018-5.931.513-6.9,1.605-1.063,1.2-.832,3.268-.512,6.136.122,1.082.26,2.309.344,3.644a21.525,21.525,0,0,1-4.385,14.174c-2.736,3.257-5.833,9.738-4.538,13.441a4.183,4.183,0,0,0,3.422,2.708c6.163,1.245,7.864-2.611,10.684-9,.517-1.172,1.052-2.383,1.659-3.666,3.266-6.895,6.313-8.091,10.925-9.9,1.107-.435,2.361-.928,3.73-1.542,5.829-2.62,4.778-6.217,3.664-10.025-.16-.544-.318-1.089-.456-1.625-.7-2.741.683-4.153,2.432-5.94a18.035,18.035,0,0,0,3.817-5.1c.592-1.237,1.08-2.918.046-3.9-1.362-1.292-4.823-.937-8.051.826Z" transform="translate(-254.145 -259.417)" fill="url(#linear-gradient-2)"/>
        </g>
        <g id="Grupo_4" data-name="Grupo 4" transform="translate(38.231 69.257)">
          <path id="Caminho_16" data-name="Caminho 16" d="M259.818,320.349l-.9-.047c.045-.845,1.18-20.778,9.183-26.611,8.779-6.4,11.548-13.278,12.866-17.895,1.554-5.439,9.46-6.893,9.8-6.953l.157.889c-.076.013-7.688,1.416-9.086,6.312-1.354,4.744-4.2,11.81-13.2,18.376C260.972,300,259.829,320.146,259.818,320.349Z" transform="translate(-258.918 -268.844)" fill="url(#linear-gradient-2)"/>
        </g>
        <path id="Caminho_17" data-name="Caminho 17" d="M274.535,204.663c-5.688-1.951-4.506,9.012-6.91,17.124s-26.738,3.539-16.523,23.851-12.919,6.794-6.01,24.519.6,36.682,8.113,31.861,4.219-27.144,12.029-29.8,9.086-5.745,1.353-12.955,20.265-14.37,13.355-28.929S281.106,206.916,274.535,204.663Z" transform="translate(-217.106 -184.35)" fill="url(#linear-gradient-2)"/>
        <g id="Grupo_5" data-name="Grupo 5" transform="translate(36.05 45.74)">
          <path id="Caminho_18" data-name="Caminho 18" d="M259.595,309.119c-.716-3.035-6.824-29.739-1.125-32.967,5.025-2.845,4.9-13.911,4.117-24.359-.693-9.25,11.186-13.573,11.692-13.753l.3.85c-.117.042-11.737,4.274-11.094,12.836.8,10.731.891,22.118-4.571,25.21-4.329,2.452-.344,23.913,1.557,31.976Z" transform="translate(-256.061 -238.039)" fill="#fff"/>
        </g>
        <path id="Caminho_19" data-name="Caminho 19" d="M266.969,318.689l-8.12,30.811H240.7l-8.121-30.811Z" transform="translate(-214.456 -211.379)" fill="url(#linear-gradient-6)"/>
        <path id="Caminho_20" data-name="Caminho 20" d="M266.97,318.689s-17.879,3.357-17.879,30.81H240.7l-8.121-30.81Z" transform="translate(-214.456 -211.379)" fill="url(#linear-gradient-7)"/>
      </g>
      <g id="Grupo_9" data-name="Grupo 9" transform="translate(234.301 101.662)">
        <g id="Grupo_8" data-name="Grupo 8">
          <g id="Grupo_7" data-name="Grupo 7">
            <path id="Caminho_21" data-name="Caminho 21" d="M404.157,193.387l-38.524.177.129,27.922.027,5.882,5.855-5.909,32.642-.15Z" transform="translate(-365.633 -193.387)" fill="#ffca55"/>
          </g>
        </g>
        <path id="Caminho_22" data-name="Caminho 22" d="M392.983,212.331a2.942,2.942,0,1,1-2.951-2.933A2.941,2.941,0,0,1,392.983,212.331Z" transform="translate(-370.711 -197.175)" fill="#fff"/>
        <path id="Caminho_23" data-name="Caminho 23" d="M405.641,212.29a2.942,2.942,0,1,1-2.951-2.932A2.942,2.942,0,0,1,405.641,212.29Z" transform="translate(-373.706 -197.165)" fill="#fff"/>
        <path id="Caminho_24" data-name="Caminho 24" d="M380.617,212.37a2.942,2.942,0,1,1-2.951-2.932A2.942,2.942,0,0,1,380.617,212.37Z" transform="translate(-367.786 -197.184)" fill="#fff"/>
      </g>
      <g id="Grupo_12" data-name="Grupo 12" transform="translate(261.262 25.328)">
        <g id="Grupo_11" data-name="Grupo 11">
          <g id="Grupo_10" data-name="Grupo 10">
            <path id="Caminho_25" data-name="Caminho 25" d="M401.078,93.4l38.523.177-.128,27.922-.028,5.882-5.854-5.908-32.641-.151Z" transform="translate(-400.95 -93.398)" fill="#78c2ff"/>
          </g>
        </g>
        <path id="Caminho_26" data-name="Caminho 26" d="M422.406,112.343a2.942,2.942,0,1,0,2.951-2.933A2.942,2.942,0,0,0,422.406,112.343Z" transform="translate(-406.026 -97.186)" fill="#fff"/>
        <path id="Caminho_27" data-name="Caminho 27" d="M409.748,112.3a2.942,2.942,0,1,0,2.951-2.934A2.942,2.942,0,0,0,409.748,112.3Z" transform="translate(-403.031 -97.177)" fill="#fff"/>
        <path id="Caminho_28" data-name="Caminho 28" d="M434.772,112.382a2.943,2.943,0,1,0,2.952-2.933A2.942,2.942,0,0,0,434.772,112.382Z" transform="translate(-408.951 -97.196)" fill="#fff"/>
      </g>
      <g id="Grupo_15" data-name="Grupo 15" transform="translate(388.39 17.672)">
        <g id="Grupo_14" data-name="Grupo 14">
          <g id="Grupo_13" data-name="Grupo 13">
            <path id="Caminho_29" data-name="Caminho 29" d="M622.245,83.369l-54.773.252.182,39.7.039,8.362,8.323-8.4,46.411-.215Z" transform="translate(-567.472 -83.369)" fill="#ffca55"/>
          </g>
        </g>
        <path id="Caminho_30" data-name="Caminho 30" d="M606.356,110.306a4.183,4.183,0,1,1-4.2-4.17A4.181,4.181,0,0,1,606.356,110.306Z" transform="translate(-574.691 -88.755)" fill="#fff"/>
        <path id="Caminho_31" data-name="Caminho 31" d="M624.354,110.249a4.184,4.184,0,1,1-4.2-4.171A4.185,4.185,0,0,1,624.354,110.249Z" transform="translate(-578.949 -88.741)" fill="#fff"/>
        <path id="Caminho_32" data-name="Caminho 32" d="M588.774,110.361a4.184,4.184,0,1,1-4.2-4.17A4.184,4.184,0,0,1,588.774,110.361Z" transform="translate(-570.532 -88.768)" fill="#fff"/>
      </g>
      <g id="Grupo_18" data-name="Grupo 18" transform="translate(483.461 46.976)">
        <g id="Grupo_17" data-name="Grupo 17">
          <g id="Grupo_16" data-name="Grupo 16">
            <path id="Caminho_33" data-name="Caminho 33" d="M740.2,121.754,692,121.976l.161,34.931.033,7.358,7.325-7.392,40.836-.188Z" transform="translate(-692.004 -121.754)" fill="#78c2ff"/>
          </g>
        </g>
        <path id="Caminho_34" data-name="Caminho 34" d="M726.219,145.455a3.682,3.682,0,1,1-3.693-3.67A3.682,3.682,0,0,1,726.219,145.455Z" transform="translate(-698.356 -126.493)" fill="#fff"/>
        <path id="Caminho_35" data-name="Caminho 35" d="M742.054,145.4a3.681,3.681,0,1,1-3.693-3.668A3.682,3.682,0,0,1,742.054,145.4Z" transform="translate(-702.103 -126.481)" fill="#fff"/>
        <path id="Caminho_36" data-name="Caminho 36" d="M710.747,145.5a3.681,3.681,0,1,1-3.691-3.67A3.679,3.679,0,0,1,710.747,145.5Z" transform="translate(-694.697 -126.504)" fill="#fff"/>
      </g>
      <g id="Grupo_21" data-name="Grupo 21" transform="translate(0 46.843)">
        <g id="Grupo_20" data-name="Grupo 20">
          <g id="Grupo_19" data-name="Grupo 19">
            <path id="Caminho_37" data-name="Caminho 37" d="M58.919,121.58l57.838.267-.192,41.921-.041,8.83-8.789-8.871L58.727,163.5Z" transform="translate(-58.727 -121.58)" fill="#78c2ff"/>
          </g>
        </g>
        <path id="Caminho_38" data-name="Caminho 38" d="M90.94,150.024a4.417,4.417,0,1,0,4.432-4.4A4.418,4.418,0,0,0,90.94,150.024Z" transform="translate(-66.348 -127.268)" fill="#fff"/>
        <path id="Caminho_39" data-name="Caminho 39" d="M71.938,149.963a4.417,4.417,0,1,0,4.431-4.4A4.417,4.417,0,0,0,71.938,149.963Z" transform="translate(-61.852 -127.253)" fill="#fff"/>
        <path id="Caminho_40" data-name="Caminho 40" d="M109.507,150.082a4.418,4.418,0,1,0,4.431-4.4A4.42,4.42,0,0,0,109.507,150.082Z" transform="translate(-70.74 -127.281)" fill="#fff"/>
      </g>
      <path id="Caminho_41" data-name="Caminho 41" d="M326.619,194.636a6.144,6.144,0,0,0-11.529-4.252,3.625,3.625,0,0,0-.25.866c-.042.2-.075.407-.1.611-.243,1.882-.266,5.832,1.438,13.316,6.155-4.584,8.7-7.6,9.739-9.191a5.809,5.809,0,0,0,.324-.53A3.635,3.635,0,0,0,326.619,194.636Zm-7.09,1.465a3.828,3.828,0,1,1,4.917-2.267A3.829,3.829,0,0,1,319.529,196.1Z" transform="translate(-119.265 -90.063)" fill="#ffca55"/>
      <g id="Grupo_28" data-name="Grupo 28" transform="translate(456.491)">
        <g id="Grupo_26" data-name="Grupo 26" transform="translate(6.833 7.708)">
          <g id="Grupo_25" data-name="Grupo 25">
            <g id="Grupo_24" data-name="Grupo 24">
              <g id="Grupo_23" data-name="Grupo 23">
                <g id="Grupo_22" data-name="Grupo 22">
                  <path id="Caminho_42" data-name="Caminho 42" d="M673.246,81.783,666.3,78.766a1.124,1.124,0,1,1,.9-2.061l4.91,2.134,3.545-7.859a1.125,1.125,0,0,1,2.051.925Z" transform="translate(-665.626 -70.317)" fill="#ffca55"/>
                </g>
              </g>
            </g>
          </g>
        </g>
        <g id="Grupo_27" data-name="Grupo 27">
          <path id="Caminho_43" data-name="Caminho 43" d="M679.023,86.022a14.192,14.192,0,1,1,3.452-19.772A14.209,14.209,0,0,1,679.023,86.022ZM663.869,64.456a12.165,12.165,0,1,0,16.948,2.96A12.18,12.18,0,0,0,663.869,64.456Z" transform="translate(-656.676 -60.222)" fill="#ffca55"/>
        </g>
      </g>
      <g id="Grupo_29" data-name="Grupo 29" transform="translate(165.694 66.935)">
        <rect id="Retângulo_5" data-name="Retângulo 5" width="18.855" height="12.91" transform="matrix(0.98, 0.2, -0.2, 0.98, 2.583, 0)" fill="#ffc655"/>
        <path id="Caminho_44" data-name="Caminho 44" d="M275.767,162.86l10.681-5.184,7.794,8.957Z" transform="translate(-275.767 -150.211)" fill="#ffbc55"/>
        <path id="Caminho_45" data-name="Caminho 45" d="M297.624,151.671l-10.845,5.994L279.15,147.9Z" transform="translate(-276.567 -147.898)" fill="#ffa655"/>
      </g>
      <path id="Caminho_46" data-name="Caminho 46" d="M632.6,159.749a7.037,7.037,0,0,0-6.5,4.308,7.039,7.039,0,0,0-7.769.713c-3.74,3.07-1.819,6.075-1.819,6.075,2.64,6.44,15.389,9.7,15.389,9.7s7.9-10.525,5.926-17.2C637.822,163.344,637.437,159.8,632.6,159.749Z" transform="translate(-190.566 -83.767)" fill="#ffca55"/>
      <g id="Grupo_34" data-name="Grupo 34" transform="translate(99.153 50.887)">
        <g id="Grupo_30" data-name="Grupo 30">
          <path id="Caminho_47" data-name="Caminho 47" d="M202.4,149.638a4.27,4.27,0,0,1-2.656.015,3.192,3.192,0,0,1-2.009-1.815,19.351,19.351,0,0,0-2.96-4.169,8.568,8.568,0,1,1,9.618-3.609,18.441,18.441,0,0,0,.735,4.81,3.744,3.744,0,0,1-2.423,4.656C202.6,149.569,202.5,149.605,202.4,149.638Zm-7.642-21.677a7.866,7.866,0,0,0,.3,15.061l.1.027.068.075a20.21,20.21,0,0,1,3.144,4.416l.011.024a2.5,2.5,0,0,0,1.585,1.425,3.6,3.6,0,0,0,2.478-.112,3.049,3.049,0,0,0,2.029-3.758l-.005-.011,0-.013a19.225,19.225,0,0,1-.774-5.12l0-.111.061-.092a7.865,7.865,0,0,0-8.989-11.809Z" transform="translate(-188.606 -126.878)" fill="#ffd255"/>
        </g>
        <g id="Grupo_31" data-name="Grupo 31" transform="translate(6.64 10.15)">
          <path id="Caminho_48" data-name="Caminho 48" d="M201.878,150.68l-4.575-8.217,2.412.753.61-1.7,1.442.768,1.1-2.115,2.518,9.074-.675.188-2.041-7.358-.605,1.164-1.352-.719-.563,1.567-1.379-.431,3.722,6.683Z" transform="translate(-197.303 -140.173)" fill="#ffd255"/>
        </g>
        <g id="Grupo_32" data-name="Grupo 32" transform="translate(10.953 20.727)">
          <rect id="Retângulo_6" data-name="Retângulo 6" width="6.077" height="2.449" transform="matrix(0.928, -0.372, 0.372, 0.928, 0, 2.264)" fill="#ffd255"/>
        </g>
        <g id="Grupo_33" data-name="Grupo 33" transform="translate(9.114 18.041)">
          <rect id="Retângulo_7" data-name="Retângulo 7" width="8.032" height="3.942" transform="translate(0 2.992) rotate(-21.869)" fill="#ffd255"/>
        </g>
      </g>
      <g id="Grupo_65" data-name="Grupo 65" transform="translate(402.717 92.887)">
        <g id="Grupo_35" data-name="Grupo 35" transform="translate(0.141 10.464)">
          <path id="Caminho_49" data-name="Caminho 49" d="M711.809,245.4c-.019,48.354-1.374,57.819-13.516,68.653-4.755,4.243-13.5,13.056-38.733,17.444a189.037,189.037,0,0,1-27.515,2.514,91.69,91.69,0,0,1-12.242-.454,63.838,63.838,0,0,1-8.653-1.512c-27.733-6.949-29.8-30.71-17.675-50.7a115.2,115.2,0,0,1,10.731-14.7c5.94-7.007,12.309-13.23,18.076-19.039,5.315-5.353,10.122-10.355,13.615-15.293a38.482,38.482,0,0,0,3.66-6.23c.224-.492.451-.979.679-1.461.747-1.571,1.515-3.082,2.289-4.527,1.457-2.713,2.94-5.194,4.371-7.414,1.141-1.773,2.248-3.378,3.279-4.8a79.134,79.134,0,0,1,6.172-7.643s.327-.154.934-.405c.321-.135.725-.3,1.2-.479.191-.073.391-.15.6-.228s.432-.158.665-.241c.213-.074.435-.153.663-.23.269-.093.549-.186.84-.281.171-.055.346-.111.524-.166l.319-.1.123-.037a55.041,55.041,0,0,1,13.914-2.445C692.069,195.058,711.829,202.916,711.809,245.4Z" transform="translate(-586.424 -195.599)" fill="#eb4747"/>
        </g>
        <g id="Grupo_36" data-name="Grupo 36" transform="translate(51.647 130.612)">
          <path id="Caminho_50" data-name="Caminho 50" d="M663.258,355.426a29.981,29.981,0,0,0,.923,4.67c.527,1.43,3.387,4.729,2.179,7.9-1.31,3.438-7.027.125-9.36-.924s-1.8-2.951-2.049-5.283-1.387-2.393-.966-4.033,2.97-4.777,2.97-4.777Z" transform="translate(-653.891 -352.978)" fill="#b7ceff"/>
        </g>
        <g id="Grupo_38" data-name="Grupo 38" transform="translate(54.387 128.916)">
          <g id="Grupo_37" data-name="Grupo 37">
            <path id="Caminho_51" data-name="Caminho 51" d="M658.9,350.757s-1.464,2.048-1.423,2.1,6.269,3.848,6.7,2.618a12.694,12.694,0,0,0,.489-2.393Z" transform="translate(-657.48 -350.757)" fill="#eea886"/>
          </g>
        </g>
        <g id="Grupo_39" data-name="Grupo 39" transform="translate(24.653 135.246)">
          <path id="Caminho_52" data-name="Caminho 52" d="M628.573,359.153a23.56,23.56,0,0,0-3.606,4.226c-1.706,2.559-6.237,2.695-6.43,6.19s6.159,3.6,9.494,2.464,3.839-4.549,5.856-5.4,3.065-1.544,2.909-3.209a20.285,20.285,0,0,0-1.271-4.37,13.977,13.977,0,0,1-1.99.482A16.531,16.531,0,0,1,628.573,359.153Z" transform="translate(-618.532 -359.049)" fill="#b7ceff"/>
        </g>
        <g id="Grupo_40" data-name="Grupo 40" transform="translate(33.966 30.486)">
          <path id="Caminho_53" data-name="Caminho 53" d="M654.322,232.021s-1.278,7.6-2.309,12.623h0a30.164,30.164,0,0,1-1.029,4.155,58.679,58.679,0,0,1-5.63,6.239c-5.153,5.3-11.961,11.984-11.961,11.984l-2.663-5.052s6.047-7.088,10.147-11.819c1.9-2.188,3.378-3.872,3.649-4.115.857-.766,1.852-8.321,3.251-14.546a25.065,25.065,0,0,1,4.2-9.665Z" transform="translate(-630.731 -221.826)" fill="#e8e8e8"/>
        </g>
        <g id="Grupo_41" data-name="Grupo 41" transform="translate(33.966 58.812)">
          <path id="Caminho_54" data-name="Caminho 54" d="M645.354,263.816c-5.153,5.3-11.961,11.984-11.961,11.984l-2.663-5.052s6.047-7.088,10.147-11.819A8.6,8.6,0,0,1,645.354,263.816Z" transform="translate(-630.731 -258.929)" fill="#eea886"/>
        </g>
        <g id="Grupo_42" data-name="Grupo 42" transform="translate(34.694 133.022)">
          <path id="Caminho_55" data-name="Caminho 55" d="M631.984,356.135l-.3,2.328a11.482,11.482,0,0,0,6.952-.1l.075-2.07Z" transform="translate(-631.685 -356.135)" fill="#eea886"/>
        </g>
        <g id="Grupo_43" data-name="Grupo 43" transform="translate(46.913 26.156)">
          <path id="Caminho_56" data-name="Caminho 56" d="M682.719,264.653c.191.676-35.029,0-35.029,0s9.742-7.091,10.374-8.986-2.481-13.262-2.887-16.96c-.324-2.96-1.138-16.2.812-18.224,2.039-2.114,9.382-4.33,9.382-4.33l10.706.4a16.733,16.733,0,0,1,3.029.955c1.263.586,8.486,3.159,9.658,6.767s-7.207,15.211-7.207,15.211-.016.521-.041,1.376h0c-.032,1.139-.08,2.87-.124,4.749-.056,2.433-.1,5.111-.1,7.067A70.044,70.044,0,0,0,682.719,264.653Z" transform="translate(-647.69 -216.154)" fill="#e8e8e8"/>
        </g>
        <g id="Grupo_44" data-name="Grupo 44" transform="translate(22.119 72.832)">
          <path id="Caminho_57" data-name="Caminho 57" d="M675.038,279.119s4.791,7.036,4.858,11.839-8.5,20.893-9.8,23.194c-3.9,6.92-14.59,21.844-14.59,21.844s-1.843-.047-7.593-2.28c0,0,7.112-19.714,8.013-21.761,3.823-8.68,5.958-14.836,4.673-16.326s-4.791-2.981-5.806-3.861-18.694,3.341-20.546,3.822c-4.8,1.244-2.61,9.59-1.55,13.333,1.776,6.259,3.329,28.867,3.329,28.867s-3.417,1.457-9.141.227c0,0-11.238-40.822-11.6-44.881s-.539-10.754,27.154-15.842Z" transform="translate(-615.213 -277.294)" fill="#303669"/>
        </g>
        <g id="Grupo_45" data-name="Grupo 45" transform="translate(60.046 2.752)">
          <path id="Caminho_58" data-name="Caminho 58" d="M672.378,185.643s-9.293-2.1-7.169,9.6,4.358,12.613,9.963,10.193,5.106-9.912,5.387-13.587S675.343,185.77,672.378,185.643Z" transform="translate(-664.893 -185.497)" fill="#eea886"/>
        </g>
        <g id="Grupo_46" data-name="Grupo 46" transform="translate(65.073 14.425)">
          <path id="Caminho_59" data-name="Caminho 59" d="M671.477,215.521s4.116,4.363,10.619.4c0,0-1.455-9.456-.689-14.06s-8.486,7.135-8.486,7.135c.121.064.2.5.22,1.13a12.312,12.312,0,0,1-.1,1.873C672.854,213.527,672.378,215.145,671.477,215.521Z" transform="translate(-671.477 -200.787)" fill="#eea886"/>
        </g>
        <g id="Grupo_47" data-name="Grupo 47" transform="translate(59.506)">
          <path id="Caminho_60" data-name="Caminho 60" d="M679.938,197s-.239-3.685-1.585-3.8-1.552,1.369-1.552,1.369l-1.359.257s.429-3.229-.915-3.793-8.707,1.778-9.785.829-.572-7.5,1.38-8.395,7.338-2.9,11.284-.233c0,0,3.078-.351,3.534,2.132S680.774,195.15,679.938,197Z" transform="translate(-664.185 -181.892)" fill="#3a3f47"/>
        </g>
        <g id="Grupo_48" data-name="Grupo 48" transform="translate(66.641 19.462)">
          <path id="Caminho_61" data-name="Caminho 61" d="M673.531,213.557c6.71-2.069,7.215-6.11,7.223-6.172-2.209,3.8-7.127,4.3-7.127,4.3A12.3,12.3,0,0,1,673.531,213.557Z" transform="translate(-673.531 -207.385)" fill="#a77860"/>
        </g>
        <g id="Grupo_49" data-name="Grupo 49" transform="translate(61.688 25.526)">
          <path id="Caminho_62" data-name="Caminho 62" d="M683.794,217.364s-4.914,9.782-12.853,9.15-1.353-10.464-.992-10.555C670.346,215.859,678.091,213.93,683.794,217.364Z" transform="translate(-667.044 -215.329)" fill="#eea886"/>
        </g>
        <g id="Grupo_50" data-name="Grupo 50" transform="translate(42.883 71.137)">
          <path id="Caminho_63" data-name="Caminho 63" d="M642.411,278.1s24.324,3,39.061.5l-28.157-3.519S653.147,275.792,642.411,278.1Z" transform="translate(-642.411 -275.074)" fill="#e8e8e8"/>
        </g>
        <g id="Grupo_51" data-name="Grupo 51" transform="translate(59.265 70.03)">
          <path id="Caminho_64" data-name="Caminho 64" d="M665.681,273.623l-1.812.918s.413,2.878,1.4,3.75l2.034-.518S666.883,274.616,665.681,273.623Z" transform="translate(-663.869 -273.623)" fill="#eea886"/>
        </g>
        <g id="Grupo_52" data-name="Grupo 52" transform="translate(61.076 33.35)">
          <path id="Caminho_65" data-name="Caminho 65" d="M694.388,256.362c-.362.42-5.144,2.344-10.547,4.424h0c-7.379,2.843-15.7,5.533-15.7,5.533l-1.895-4.063s8.717-4.737,14.608-8.059c2.783-1.568,4.934-2.822,5.239-3.112.947-.9,1.193-2.348.5-4.871s-2.3-14.119-2.482-15.472.45-4.962,3.833-5.142a10.149,10.149,0,0,1,5.106.776s.849.353,1.48,8.562S695.244,255.371,694.388,256.362Z" transform="translate(-666.242 -225.577)" fill="#e8e8e8"/>
        </g>
        <g id="Grupo_53" data-name="Grupo 53" transform="translate(78.676 40.952)">
          <path id="Caminho_66" data-name="Caminho 66" d="M691.359,245.447h0c-.032,1.139-.08,2.87-.124,4.749a23.734,23.734,0,0,1-1.361-14.661C689.517,237.731,691.334,245.339,691.359,245.447Z" transform="translate(-689.296 -235.535)" fill="#b0b0b0"/>
        </g>
        <g id="Grupo_54" data-name="Grupo 54" transform="translate(53.688 45.015)">
          <path id="Caminho_67" data-name="Caminho 67" d="M658.125,249.146h0A30.161,30.161,0,0,1,657.1,253.3c-1.128-5.457-.113-12.445-.113-12.445A70.29,70.29,0,0,0,658.125,249.146Z" transform="translate(-656.564 -240.857)" fill="#b0b0b0"/>
        </g>
        <g id="Grupo_55" data-name="Grupo 55" transform="translate(61.076 61.97)">
          <path id="Caminho_68" data-name="Caminho 68" d="M683.841,269.655h0c-7.379,2.843-15.972,5.62-15.972,5.62l-1.627-4.15s8.717-4.737,14.608-8.059C680.85,263.066,682.994,264.111,683.841,269.655Z" transform="translate(-666.242 -263.066)" fill="#eea886"/>
        </g>
        <g id="Grupo_56" data-name="Grupo 56" transform="translate(25.979 73.912)">
          <path id="Caminho_69" data-name="Caminho 69" d="M654.841,279.217l-34.573-.509,17.454,8.862Z" transform="translate(-620.269 -278.708)" fill="#444c94"/>
        </g>
        <g id="Grupo_57" data-name="Grupo 57" transform="translate(42.081 74.421)">
          <path id="Caminho_70" data-name="Caminho 70" d="M642.713,287.728l17.118-6.63v-1.723l-18.471,6.662Z" transform="translate(-641.36 -279.375)" fill="#303669"/>
        </g>
        <g id="Grupo_59" data-name="Grupo 59" transform="translate(47.606 70.24)">
          <g id="Grupo_58" data-name="Grupo 58">
            <path id="Caminho_71" data-name="Caminho 71" d="M660.647,274.669s-2.16-.336-3.651-.683c-1.156-.269-4.028.1-4.759.842s-3.059,5.907-3.5,6.222.226,1.045,1,.678c0,0,.71,2.26,2.46,1.415s2.94-2.694,3.858-3.019,6.257-1.967,6.257-1.967S662.023,274.119,660.647,274.669Z" transform="translate(-648.597 -273.898)" fill="#eea886"/>
          </g>
        </g>
        <g id="Grupo_61" data-name="Grupo 61" transform="translate(47.762 70.831)">
          <g id="Grupo_60" data-name="Grupo 60">
            <path id="Caminho_72" data-name="Caminho 72" d="M652.812,274.673a15.048,15.048,0,0,0-1.749.968c-.362.3-1.832,1.4-2.187,1.657s.537.993,3.161-.143S652.812,274.673,652.812,274.673Z" transform="translate(-648.802 -274.673)" fill="#eea886"/>
          </g>
        </g>
        <g id="Grupo_62" data-name="Grupo 62" transform="translate(0 54.697)">
          <path id="Caminho_73" data-name="Caminho 73" d="M629.673,281.616l-10.282-28.077-33.152.541,9.8,25.875Z" transform="translate(-586.239 -253.539)" fill="#303669"/>
        </g>
        <g id="Grupo_63" data-name="Grupo 63" transform="translate(16.918 64.503)">
          <path id="Caminho_74" data-name="Caminho 74" d="M614.026,269c1.011,2.022.7,4.225-.683,4.92s-3.334-.382-4.346-2.406-.705-4.224.683-4.919S613.013,266.976,614.026,269Z" transform="translate(-608.4 -266.384)" fill="#518afa"/>
        </g>
        <g id="Grupo_64" data-name="Grupo 64" transform="translate(72.064 10.211)">
          <path id="Caminho_75" data-name="Caminho 75" d="M680.72,196.168a1.185,1.185,0,0,1,2.326.137c.164,1.547-.926,4.262-1.7,4S680.552,197.59,680.72,196.168Z" transform="translate(-680.635 -195.267)" fill="#eea886"/>
        </g>
      </g>
      <g id="Grupo_70" data-name="Grupo 70" transform="translate(173.646 140.107)">
        <path id="Caminho_76" data-name="Caminho 76" d="M387.669,339.7c-.234,1.644-10.11,8.56-12.055,9.942a20.886,20.886,0,0,1-5.278,2.5h0c-5.362,1.41-39.006,11.449-39.006,11.449a4.309,4.309,0,0,0-.334-1.022c-1.257.5-2.549.826-3.37,1.083-1.252.39-11.194.7-13.23,1.1s-6.106,1.017-7.75-.549,1.018-4.931,3.289-5.793,10.568-1.1,12.055-1.252,3.445-.7,4.384-.392a11.2,11.2,0,0,0,3.264-.858c-.04-.61-.05-.994-.05-.994l8.833-2.546-1.635-15.642s3.843-14.483,19.2-3.434c0,0,3.426,1.007,4.6,1.32a1.3,1.3,0,0,0,.392.011c2.343-.176,12.409-3.221,16.046-3.221,3.915,0,5.167-.235,6.576.47S387.905,338.054,387.669,339.7Z" transform="translate(-290.903 -263.946)" fill="#faa146"/>
        <path id="Caminho_77" data-name="Caminho 77" d="M367.22,364.321c-1.645,1.566-5.716.94-7.75.549s-11.977-.705-13.23-1.1a20.424,20.424,0,0,1-5.245-2.037,5.352,5.352,0,0,0-.879-.385l0,0-2.487,1.793-34.567-11a12.376,12.376,0,0,1-4.809-2.383c-1.8-1.566-11.822-8.3-12.056-9.942s2.661-7.124,4.07-7.828,2.662-.47,6.576-.47,15.266,3.523,16.44,3.209a17.287,17.287,0,0,0,2.687-1.276c1.255-.687,2.427-1.385,2.427-1.385,16.813-7.505,18.685,4.775,18.685,4.775l-1,15.161s1.4.7,3.225,1.561l8.333,2.355-1.091.787a2.13,2.13,0,0,0,.941.176c.939-.312,2.9.236,4.384.392s9.785.392,12.056,1.252S368.864,362.756,367.22,364.321Z" transform="translate(-286.182 -264.065)" fill="#faa146"/>
        <path id="Caminho_78" data-name="Caminho 78" d="M324.366,334.635c1.159.08,8.993,4.618,10.852,5.7-2.825-1.475-13.539-4.426-13.539-4.426A17.292,17.292,0,0,0,324.366,334.635Z" transform="translate(-294.58 -265.247)" fill="#5478b3"/>
        <path id="Caminho_79" data-name="Caminho 79" d="M373.025,335.868s-13.5,3.274-15.966,4.646c.112-.082,7.113-5.4,10.787-6.11,0,0,3.61,1.14,4.785,1.453a1.294,1.294,0,0,0,.392.011Z" transform="translate(-302.95 -265.193)" fill="#5478b3"/>
        <path id="Caminho_80" data-name="Caminho 80" d="M383.933,372.709c-1.645,1.566-5.716.94-7.75.549s-11.977-.705-13.23-1.1c-.361-.114-.81-.239-1.309-.386h0a14.939,14.939,0,0,1-3.935-1.651,5.355,5.355,0,0,0-.879-.385l6.256-4.515.179-.13a2.13,2.13,0,0,0,.941.176c.939-.312,2.9.236,4.384.392s9.785.392,12.056,1.252S385.577,371.144,383.933,372.709Z" transform="translate(-302.895 -272.454)" fill="#eea886"/>
        <path id="Caminho_81" data-name="Caminho 81" d="M385.424,372.709c-1.645,1.566-5.716.94-7.75.549s-11.977-.705-13.23-1.1c-.361-.114-.81-.239-1.309-.386h0a6.612,6.612,0,0,0,1.444-6.549l.179-.13a2.13,2.13,0,0,0,.941.176c.939-.312,2.9.236,4.384.392s9.785.392,12.056,1.252S387.068,371.144,385.424,372.709Z" transform="translate(-304.387 -272.454)" fill="#fff"/>
        <path id="Caminho_82" data-name="Caminho 82" d="M329.657,339.16c.018.042.014.073-.013.092C329.488,339.37,329.514,339.32,329.657,339.16Z" transform="translate(-296.439 -266.318)" fill="#e55353"/>
        <path id="Caminho_83" data-name="Caminho 83" d="M368.848,306.58c-.131-.264-7.262-11.482-9.193-16.6a14.433,14.433,0,0,0-8.768-8.193c-.782-.261-2.175-.715-3.645-1.191-2.648-.856-5.539-1.784-5.539-1.784h-9.134s-3.164,1.06-6.525,2.238l0,0c-3.1,1.087-6.357,2.273-7.459,2.824-2.3,1.147-6.159,9.341-6.941,10.28s-6.8,12.1-7.672,16.388c-.675,3.331,19.1,13.088,19.635,14.338.626-.695,3.506-3.454,3.506-3.454s-.922-.58-2.221-1.435c5.3.243,18.237-.215,20.094-.121a9.646,9.646,0,0,0,1.2-.026h0c.574.418,4.281,3.691,4.281,3.691s9.134-3.791,13.333-8.036C369.756,309.477,369.505,307.912,368.848,306.58ZM316.918,314c-1.957-2.348-4.652-3.769-3.974-4.813s6.42-10.961,6.42-10.961a80.968,80.968,0,0,1,3.81,9.916c.835,3.393.77,4.946.417,6a15.8,15.8,0,0,0-.854,4.408A37.355,37.355,0,0,1,316.918,314Zm40.381-1.121c-.768.872-3.8,2.8-6.535,4.39-.208-1.892-.522-4.871-.556-5.942a26.464,26.464,0,0,1,1.461-8.037c.835-1.774,1.409-6.629,1.409-6.629s6.914,9.395,8.011,10.386S359.892,309.936,357.3,312.881Z" transform="translate(-290.386 -252.042)" fill="#5779d4"/>
        <g id="Grupo_66" data-name="Grupo 66" transform="translate(39.291 1.604)">
          <path id="Caminho_84" data-name="Caminho 84" d="M346.195,245.913s7.143,1.124,6.055,12.3-7.392,10.259-7.813,10.248-6.328.2-6.788-13.441C337.649,255.02,337.447,244.931,346.195,245.913Z" transform="translate(-337.648 -245.846)" fill="#eea886"/>
        </g>
        <g id="Grupo_67" data-name="Grupo 67" transform="translate(53.587 10.446)">
          <path id="Caminho_85" data-name="Caminho 85" d="M356.79,257.8s.783-.835,1.07.011-1.067,4.618-1.116,4.794c0,0-.143.328-.331.147A40.92,40.92,0,0,1,356.79,257.8Z" transform="translate(-356.375 -257.428)" fill="#eea886"/>
        </g>
        <g id="Grupo_68" data-name="Grupo 68" transform="translate(38.367 10.292)">
          <path id="Caminho_86" data-name="Caminho 86" d="M337.554,257.608s-.766-.851-1.07-.011.966,4.636,1.023,4.815c0,0,.137.33.328.154A40.984,40.984,0,0,0,337.554,257.608Z" transform="translate(-336.438 -257.226)" fill="#eea886"/>
        </g>
        <g id="Grupo_69" data-name="Grupo 69" transform="translate(38.465 0)">
          <path id="Caminho_87" data-name="Caminho 87" d="M352.1,256.274l-1.022,1.366a27.4,27.4,0,0,0-.135-3.466c-.165-.47-.416-1.906-.553-2.244s-6.133-2.02-11.429.49c0,0,.232,2.156-.276,2.347s-.258,3.509-.258,3.509l-.841-.948s-1.287-8.6-.97-9.493,1.331-6.284,12.2-3.086c0,0,3.387-.718,4.068,1.622S352.1,256.274,352.1,256.274Z" transform="translate(-336.567 -243.745)" fill="#434343"/>
        </g>
        <path id="Caminho_88" data-name="Caminho 88" d="M328.3,350.585s-10.934-6.552-15.709-7.582c-4.513-.975-6.159-2.663-6.159-2.663s7.176,0,11.952,3.393C321.628,346.036,328.3,350.585,328.3,350.585Z" transform="translate(-290.973 -266.597)" fill="#b57433"/>
        <path id="Caminho_89" data-name="Caminho 89" d="M347.8,355.154s19.017-9.986,26.782-12.151c4.447-1.241,6.159-2.663,6.159-2.663s-11.758,1.149-18.907,5.454C358.426,347.846,347.8,355.154,347.8,355.154Z" transform="translate(-300.76 -266.597)" fill="#b57433"/>
        <path id="Caminho_90" data-name="Caminho 90" d="M331,370.868c-1.257.5-2.549.826-3.37,1.083-1.252.39-11.194.7-13.23,1.1s-6.106,1.017-7.75-.549,1.018-4.931,3.289-5.793,10.568-1.1,12.055-1.252,3.445-.7,4.384-.392a11.2,11.2,0,0,0,3.264-.858C329.689,365.2,331,370.868,331,370.868Z" transform="translate(-290.903 -272.242)" fill="#eea886"/>
        <path id="Caminho_91" data-name="Caminho 91" d="M347.8,369.629l18.7-5.532-3.7-1.128S347.859,368.385,347.8,369.629Z" transform="translate(-300.76 -271.95)" fill="#faa146"/>
        <path id="Caminho_92" data-name="Caminho 92" d="M347.8,370.867l8.749-2.668-6.066,3.523Z" transform="translate(-300.76 -273.187)" fill="#b57433"/>
        <path id="Caminho_93" data-name="Caminho 93" d="M339.807,342.336l-.393-.232A3.936,3.936,0,0,1,339.807,342.336Z" transform="translate(-298.775 -267.014)" fill="#525252"/>
        <path id="Caminho_94" data-name="Caminho 94" d="M327.627,372.187c-1.252.39-11.194.7-13.23,1.1s-6.106,1.017-7.75-.549,1.018-4.931,3.289-5.793,10.568-1.1,12.055-1.252,3.445-.7,4.384-.392A5.157,5.157,0,0,0,327.627,372.187Z" transform="translate(-290.903 -272.479)" fill="#fff"/>
        <path id="Caminho_95" data-name="Caminho 95" d="M325.3,335l-2.881-16.387,37.248-.86-2.4,16.126s-11.889,4.351-15.924,6.891C341.342,340.765,331.143,336.574,325.3,335Z" transform="translate(-294.754 -261.252)" fill="#525252"/>
        <path id="Caminho_96" data-name="Caminho 96" d="M348.785,331.06a2.115,2.115,0,1,1-2.089-2.453A2.293,2.293,0,0,1,348.785,331.06Z" transform="translate(-300.005 -263.821)" fill="#6e6e6e"/>
        <path id="Caminho_97" data-name="Caminho 97" d="M349.021,276.658c0-.01-.006-.02-.01-.03-.446-.995-.227-5.846-.227-5.846s-9.1-2.315-8.837-.545-.784,6.6-.784,6.6l-4.666,1.6s4.971,13.352,10.687,11.629,7.872-12.11,7.872-12.11Z" transform="translate(-297.612 -249.855)" fill="#eea886"/>
        <path id="Caminho_98" data-name="Caminho 98" d="M341.858,273.017a5.3,5.3,0,0,0,3.97,1.85,5.68,5.68,0,0,0,4.482-2.037,4.65,4.65,0,0,1-4.471,3.316S343.117,276.54,341.858,273.017Z" transform="translate(-299.354 -250.626)" fill="#a77860"/>
      </g>
      <g id="Grupo_117" data-name="Grupo 117" transform="translate(349.451 61.734)">
        <g id="Grupo_73" data-name="Grupo 73" transform="translate(12.217)">
          <g id="Grupo_72" data-name="Grupo 72">
            <g id="Grupo_71" data-name="Grupo 71">
              <path id="Caminho_99" data-name="Caminho 99" d="M543.6,141.1a7.066,7.066,0,0,1,7.192,4.552c1.9,5.106,3.7,6.777,3.922,9.46.908,10.848,5.975,8.394,4.549,14.646s-2.412,7.2-2.412,7.2l-12.11-2.375-12.271.039s4.8-2.4,3.732-7.5-3.732-13.473-2.228-19.173S540.439,141.54,543.6,141.1Z" transform="translate(-532.47 -141.086)" fill="#464240"/>
            </g>
          </g>
        </g>
        <g id="Grupo_75" data-name="Grupo 75" transform="translate(16.69 159.145)">
          <g id="Grupo_74" data-name="Grupo 74">
            <path id="Caminho_100" data-name="Caminho 100" d="M541.64,358.043s-3.8,5.215-3.258,6.056,4.685.96,7.205,0,2.583-7.176,3.723-9.846c.478-1.118-.545-4.418-1.981-4.658a6.462,6.462,0,0,0-3.123.515S545.678,353.909,541.64,358.043Z" transform="translate(-538.329 -349.548)" fill="#eb4747"/>
          </g>
        </g>
        <g id="Grupo_77" data-name="Grupo 77" transform="translate(18.841 158.949)">
          <g id="Grupo_76" data-name="Grupo 76">
            <path id="Caminho_101" data-name="Caminho 101" d="M544.872,350.048a35.5,35.5,0,0,1-.779,4.2c-.48,1.741-3.061,5.7-2.942,6.184s3.363.915,4.683-.323,2.341-4.824,2.462-6.994a11.525,11.525,0,0,0-.3-3.585A2.935,2.935,0,0,0,544.872,350.048Z" transform="translate(-541.147 -349.29)" fill="#eea886"/>
          </g>
        </g>
        <g id="Grupo_79" data-name="Grupo 79" transform="translate(26.95 163.85)">
          <g id="Grupo_78" data-name="Grupo 78">
            <path id="Caminho_102" data-name="Caminho 102" d="M552.49,355.71v5.552h-.721v-4.291Z" transform="translate(-551.769 -355.71)" fill="#eb4747"/>
          </g>
        </g>
        <g id="Grupo_81" data-name="Grupo 81" transform="translate(26.628 159.145)">
          <g id="Grupo_80" data-name="Grupo 80">
            <path id="Caminho_103" data-name="Caminho 103" d="M554.656,358.043s-3.8,5.215-3.258,6.056,4.684.96,7.205,0,2.581-7.176,3.722-9.846c.477-1.118-.544-4.418-1.981-4.658a6.459,6.459,0,0,0-3.122.515S558.693,353.909,554.656,358.043Z" transform="translate(-551.346 -349.548)" fill="#eb4747"/>
          </g>
        </g>
        <g id="Grupo_83" data-name="Grupo 83" transform="translate(28.778 158.949)">
          <g id="Grupo_82" data-name="Grupo 82">
            <path id="Caminho_104" data-name="Caminho 104" d="M557.889,350.048a35.557,35.557,0,0,1-.78,4.2c-.479,1.741-3.062,5.7-2.942,6.184s3.363.915,4.683-.323,2.341-4.824,2.462-6.994a11.512,11.512,0,0,0-.3-3.585A2.933,2.933,0,0,0,557.889,350.048Z" transform="translate(-554.163 -349.29)" fill="#eea886"/>
          </g>
        </g>
        <g id="Grupo_85" data-name="Grupo 85" transform="translate(36.887 163.85)">
          <g id="Grupo_84" data-name="Grupo 84">
            <path id="Caminho_105" data-name="Caminho 105" d="M565.505,355.71v5.552h-.72v-4.291Z" transform="translate(-564.785 -355.71)" fill="#eb4747"/>
          </g>
        </g>
        <g id="Grupo_87" data-name="Grupo 87" transform="translate(6.185 57.584)">
          <g id="Grupo_86" data-name="Grupo 86">
            <path id="Caminho_106" data-name="Caminho 106" d="M531.4,232.2s-2.872,15.827-3.648,19.786-2.949,23.133-3.182,26.395,7.082,18.943,7.54,20.025c7.654,18.109,8.538,22.207,8.538,22.207s2.513,1.575,3.674-.3c.353-.573-4.712-21.337-5.546-27.1-.776-5.358-2.8-13.631-2.252-15.512s5.513-27.792,6.445-28.879,2.329.621,2.873,3.029,1.707,23.211,2.4,25.85.156,11.568.544,16.07,2.006,25.521,2.006,25.521,3.126.559,3.437.059,3.019-23.343,3.1-28.7.16-12.744.311-15.061c1.438-22.2,4.155-25.1-.594-41.078C545.432,195.417,531.4,232.2,531.4,232.2Z" transform="translate(-524.569 -216.515)" fill="#eea886"/>
          </g>
        </g>
        <g id="Grupo_89" data-name="Grupo 89" transform="translate(6.185 57.584)">
          <g id="Grupo_88" data-name="Grupo 88">
            <path id="Caminho_107" data-name="Caminho 107" d="M531.4,232.2s-2.872,15.827-3.648,19.786-2.949,23.133-3.182,26.395,6.83,18.942,6.987,20.107,5.973,17.833,5.973,17.833,5.876-.1,7.479-1.624c.321-.305-5.4-15.726-6.232-21.487-.776-5.358-2.8-13.631-2.252-15.512s5.513-27.792,6.445-28.879,2.329.621,2.873,3.029,1.707,23.211,2.4,25.85.156,11.568.544,16.07-.431,20.5-.431,20.5,7.7.4,8.008-.1.884-18.169.962-23.525.16-12.744.311-15.061c1.438-22.2,4.155-25.1-.594-41.078C545.432,195.417,531.4,232.2,531.4,232.2Z" transform="translate(-524.569 -216.515)" fill="#faa146"/>
          </g>
        </g>
        <g id="Grupo_91" data-name="Grupo 91" transform="translate(0 27.31)">
          <g id="Grupo_90" data-name="Grupo 90">
            <path id="Caminho_108" data-name="Caminho 108" d="M556.288,228.145c.448-.181-3.146-12.066-3.859-15.618-.643-3.2-2.832-6.138-.693-11.6a20.289,20.289,0,0,0,1.142-6.82s3.272,7.218,3.582,9.083-11.309-1.527-11.469-1.27a19.6,19.6,0,0,0-.646,4.723c0,.9,16.867,4.884,18.864,1.352.566-1-3.1-20.171-5.461-22.723-3.881-4.192-14.077-7.764-14.077-7.764s-2.795-1.5-7.713.052-11.8,6.314-12.99,7.556-5.952,19.96-6.368,22.384c-.39,2.28-.237,7.078,4.969,6.464l14.052-3.218-.873-4.283-10.532.833c-2.15.367-1.119-1.52-.844-2.569.267-1.028,2.911-10.554,2.911-10.554-.153,2.639,1.838,11.306,2.874,14.307s-1.254,19.065-1.409,20.823C527.747,229.307,536.206,236.256,556.288,228.145Z" transform="translate(-516.467 -176.859)" fill="#eb4747"/>
          </g>
        </g>
        <g id="Grupo_93" data-name="Grupo 93" transform="translate(18.18 27.442)">
          <g id="Grupo_92" data-name="Grupo 92">
            <path id="Caminho_109" data-name="Caminho 109" d="M551.6,178.43s-3.466,7.153-6.362,9.25c0,0-5.212-7.81-4.945-9.611C540.291,178.069,546.064,175.509,551.6,178.43Z" transform="translate(-540.281 -177.031)" fill="#eea886"/>
          </g>
        </g>
        <g id="Grupo_94" data-name="Grupo 94" transform="translate(24.054 50.995)">
          <path id="Caminho_110" data-name="Caminho 110" d="M553.544,209.848a6.538,6.538,0,0,1-2.033-1.23,3.075,3.075,0,0,0-2.9-.618c-1.054.315-.471,4.842-.471,4.842l5.561.72Z" transform="translate(-547.976 -207.883)" fill="#eea886"/>
        </g>
        <g id="Grupo_96" data-name="Grupo 96" transform="translate(19.557 52.372)">
          <g id="Grupo_95" data-name="Grupo 95">
            <path id="Caminho_111" data-name="Caminho 111" d="M542.085,213.733a21.109,21.109,0,0,0,.406-3.465c-.129-.539.95-1.081,1.1.253s.23,2.183.23,2.183Z" transform="translate(-542.085 -209.687)" fill="#eea886"/>
          </g>
        </g>
        <g id="Grupo_97" data-name="Grupo 97" transform="translate(20.165 47.472)">
          <path id="Caminho_112" data-name="Caminho 112" d="M544.585,214.245l4.048-.165a.975.975,0,0,0,.936-.962l.108-8.863a.973.973,0,0,0-1.005-.985l-4.846.158a.975.975,0,0,0-.94,1.05l.689,8.869A.974.974,0,0,0,544.585,214.245Z" transform="translate(-542.881 -203.269)" fill="#51578c"/>
        </g>
        <g id="Grupo_99" data-name="Grupo 99" transform="translate(14.958 53.249)">
          <g id="Grupo_98" data-name="Grupo 98">
            <path id="Caminho_113" data-name="Caminho 113" d="M540.57,214.242s-.076-.831,1.521-1.592c2.118-1.011,4.946-2.038,5.428-1.773.7.382.337.911-1,1.352s-1.78.582-1.78.582a11.223,11.223,0,0,1,3.207.063c.588.315.621,1.038.191,1.157a10.975,10.975,0,0,1-1.442.191s1.111.042,1.223.488c.082.331.123.8-.929,1a.774.774,0,0,1-.356,1.3,18.563,18.563,0,0,1-3.98,1.129,44.9,44.9,0,0,1-6.591.086l1.877-3.175a5.365,5.365,0,0,0,1.762-.162C540.669,214.556,540.57,214.242,540.57,214.242Z" transform="translate(-536.06 -210.835)" fill="#eea886"/>
          </g>
        </g>
        <g id="Grupo_100" data-name="Grupo 100" transform="translate(9.854 56.918)">
          <path id="Caminho_114" data-name="Caminho 114" d="M537.8,215.642l.872,4.283-8.954,2.051-.346-5.668Z" transform="translate(-529.374 -215.642)" fill="#eb4747"/>
        </g>
        <g id="Grupo_101" data-name="Grupo 101" transform="translate(27.87 52.375)">
          <path id="Caminho_115" data-name="Caminho 115" d="M553.627,209.691a11.332,11.332,0,0,0-.646,4.723,51.722,51.722,0,0,0,9.866,2.5v-5.447Z" transform="translate(-552.974 -209.691)" fill="#eb4747"/>
        </g>
        <g id="Grupo_102" data-name="Grupo 102" transform="translate(12.877 61.201)">
          <path id="Caminho_116" data-name="Caminho 116" d="M539.611,221.252l-6.277,3.49c.044-.728.075-1.425.089-2.073Z" transform="translate(-533.334 -221.252)" fill="#b33636"/>
        </g>
        <g id="Grupo_103" data-name="Grupo 103" transform="translate(27.878 57.097)">
          <path id="Caminho_117" data-name="Caminho 117" d="M560.76,220.445c-5.036-2-7.052-3.806-7.606-4.378a2.445,2.445,0,0,1-.169-.189l7.152,2.086h0C560.314,218.828,560.549,219.642,560.76,220.445Z" transform="translate(-552.984 -215.877)" fill="#b33636"/>
        </g>
        <g id="Grupo_106" data-name="Grupo 106" transform="translate(15.702 2.947)">
          <g id="Grupo_105" data-name="Grupo 105">
            <g id="Grupo_104" data-name="Grupo 104">
              <path id="Caminho_118" data-name="Caminho 118" d="M545.375,145s7,1.012,5.978,11.346-7.2,9.517-7.618,9.508-6.2.215-6.7-12.4C537.035,153.46,536.8,144.133,545.375,145Z" transform="translate(-537.034 -144.946)" fill="#eea886"/>
            </g>
          </g>
        </g>
        <g id="Grupo_109" data-name="Grupo 109" transform="translate(19.182 21.555)">
          <g id="Grupo_108" data-name="Grupo 108">
            <g id="Grupo_107" data-name="Grupo 107">
              <path id="Caminho_119" data-name="Caminho 119" d="M549.565,169.79s-.432,5.378.6,6.988-.885,3.8-4.845,3.049-3.726-2.991-3.726-2.991a16.416,16.416,0,0,0,.783-5.975C542.055,168.2,549.565,169.79,549.565,169.79Z" transform="translate(-541.594 -169.32)" fill="#eea886"/>
            </g>
          </g>
        </g>
        <g id="Grupo_112" data-name="Grupo 112" transform="translate(15.006 1.312)">
          <g id="Grupo_111" data-name="Grupo 111">
            <g id="Grupo_110" data-name="Grupo 110">
              <path id="Caminho_120" data-name="Caminho 120" d="M544.359,148.244s3.272,3.439,4.793,5.181,1.693,5.105,1.693,5.105,2.561-3.126,1.489-6.768-3.6-10.725-10.015-8.55-6.649,11.755-5.9,16.5C536.422,159.716,539.3,149.232,544.359,148.244Z" transform="translate(-536.123 -142.805)" fill="#464240"/>
            </g>
          </g>
        </g>
        <g id="Grupo_114" data-name="Grupo 114" transform="translate(20.483 22.717)">
          <g id="Grupo_113" data-name="Grupo 113">
            <path id="Caminho_121" data-name="Caminho 121" d="M543.3,171.515a6.116,6.116,0,0,0,5.886-.673,3.787,3.787,0,0,1-2.944,1.9A2.9,2.9,0,0,1,543.3,171.515Z" transform="translate(-543.298 -170.842)" fill="#a77860"/>
          </g>
        </g>
        <g id="Grupo_115" data-name="Grupo 115" transform="translate(11.919 25.265)">
          <path id="Caminho_122" data-name="Caminho 122" d="M539.627,174.18s-9.633,8.57-7.133,13.918c2.133,4.564,9.7,1.765,8.451-3.017A53.8,53.8,0,0,1,539.627,174.18Z" transform="translate(-532.08 -174.18)" fill="#464240"/>
        </g>
        <g id="Grupo_116" data-name="Grupo 116" transform="translate(20.885 48.737)">
          <path id="Caminho_123" data-name="Caminho 123" d="M545.029,205.528a.6.6,0,1,1-.6-.6A.6.6,0,0,1,545.029,205.528Z" transform="translate(-543.824 -204.926)" fill="#48484d"/>
        </g>
      </g>
      <g id="Grupo_123" data-name="Grupo 123" transform="translate(41.856 92.791)">
        <g id="Grupo_118" data-name="Grupo 118" transform="translate(62.124 90.376)">
          <path id="Caminho_124" data-name="Caminho 124" d="M201.957,347.1l-7.029-46.747,1.353-.207,7.029,46.745Z" transform="translate(-194.928 -300.148)" fill="#5c5049"/>
        </g>
        <g id="Grupo_119" data-name="Grupo 119" transform="translate(53.541 90.376)">
          <path id="Caminho_125" data-name="Caminho 125" d="M190.714,347.1l-7.029-46.747,1.355-.207,7.028,46.745Z" transform="translate(-183.685 -300.148)" fill="#5c5049"/>
        </g>
        <g id="Grupo_120" data-name="Grupo 120" transform="translate(16.94 90.376)">
          <path id="Caminho_126" data-name="Caminho 126" d="M137.1,347.1l-1.354-.209,7.029-46.745,1.353.207Z" transform="translate(-135.743 -300.148)" fill="#5c5049"/>
        </g>
        <path id="Caminho_127" data-name="Caminho 127" d="M192.018,282.785l5.506-57.928s-9.629-1.259-15.448-.949l-8.746,58.877Z" transform="translate(-127.695 -191.725)" fill="#fab46c"/>
        <rect id="Retângulo_8" data-name="Retângulo 8" width="18.688" height="2.945" transform="translate(45.635 88.115)" fill="#fab46c"/>
        <path id="Caminho_128" data-name="Caminho 128" d="M156.41,280.446l-2.922-55.2s24.372-2.647,39.342-.366Z" transform="translate(-123.001 -191.747)" fill="#fab46c"/>
        <path id="Caminho_129" data-name="Caminho 129" d="M175.475,197.389s3.764-11.036-3.418-14.457-13.28,1.525-14.431,4.2-.847,7.542.135,10.935.84,8.56-1.295,10.287-4.78,4.6-4.649,10.438c.081,3.623,14.259-9.27,14.259-9.27Z" transform="translate(-122.604 -181.767)" fill="#fccca2"/>
        <path id="Caminho_130" data-name="Caminho 130" d="M169.369,353.931s-.224,7.8.89,8.268,5.329-2.242,7.188-4.925-2.329-8.924-3.017-12.367c-.288-1.444-3.563-4.036-5.159-3.294a7.809,7.809,0,0,0-2.764,2.648S170.572,347.048,169.369,353.931Z" transform="translate(-126.081 -219.551)" fill="#d4c3bd"/>
        <g id="Grupo_121" data-name="Grupo 121" transform="translate(40.426 122.062)">
          <path id="Caminho_131" data-name="Caminho 131" d="M166.507,344.3a43.071,43.071,0,0,1,2.095,4.727c.711,2.065.844,7.784,1.292,8.181s3.981-1.385,4.452-3.523-.961-6.413-2.325-8.66a13.994,13.994,0,0,0-2.75-3.373A3.548,3.548,0,0,0,166.507,344.3Z" transform="translate(-166.507 -341.654)" fill="#de9673"/>
        </g>
        <path id="Caminho_132" data-name="Caminho 132" d="M176.885,345.969l3.8,5.539-.719.492-2.934-4.282Z" transform="translate(-128.536 -220.613)" fill="#d4c3bd"/>
        <path id="Caminho_133" data-name="Caminho 133" d="M154.575,265.095s1.856,3.134,0,5.416-14.336,8.55-14.244,12.171,2.377,9.288,3.2,10.725,3.852,7.4,5.426,10.9,10.68,20.193,12.46,23.958.684-15.059.684-15.059L153,286.5l21.274-20.724S171.693,260.048,154.575,265.095Z" transform="translate(-119.888 -200.988)" fill="#de9673"/>
        <path id="Caminho_134" data-name="Caminho 134" d="M164.7,219.335s-5.9,1.309-8.244,2.678-7.546,7.668-7.546,10.375,22.752,5.239,22.752,5.239l4.313,15.746s11.5-2.808,12.87-5.136-4.529-18.893-5.351-22.385-5.123-5.845-9.915-6.517A32.966,32.966,0,0,0,164.7,219.335Z" transform="translate(-121.917 -190.584)" fill="#2f4563"/>
        <path id="Caminho_135" data-name="Caminho 135" d="M179.889,266.417s-.411,2.692.684,3.833,6.141,7.795,3.469,14.331c-2.454,6-7.211,5.888-7.211,5.888h-7.363s2.138,10.8,1.448,17.922-3.939,23.378-4.006,24.2-3.113,3.39-4,2.09c0,0-.082-9.789-.563-13.486s-2.518-18.483-3.135-20.674-4.244-8.831-4.244-9.516-3.544-11.4,4.193-14.139S169.627,266.474,179.889,266.417Z" transform="translate(-123.158 -201.793)" fill="#eea886"/>
        <path id="Caminho_136" data-name="Caminho 136" d="M159.405,362.7s-5.078,5.923-4.507,6.988,5.553,1.607,8.686.691,3.8-8.4,5.432-11.514c.683-1.3-.233-5.378-1.941-5.805a7.8,7.8,0,0,0-3.813.322S164.669,358.1,159.405,362.7Z" transform="translate(-123.324 -222.258)" fill="#e6d3cc"/>
        <g id="Grupo_122" data-name="Grupo 122" transform="translate(34.451 130.37)">
          <path id="Caminho_137" data-name="Caminho 137" d="M164.167,353.286a43.033,43.033,0,0,1-1.345,4.992c-.746,2.053-4.238,6.582-4.139,7.172s3.965,1.426,5.677.06,3.285-5.59,3.638-8.2a14.012,14.012,0,0,0-.018-4.352A3.548,3.548,0,0,0,164.167,353.286Z" transform="translate(-158.68 -352.536)" fill="#eea886"/>
        </g>
        <path id="Caminho_138" data-name="Caminho 138" d="M172.971,360.7l-.532,6.694-.869-.069.412-5.173Z" transform="translate(-127.278 -224.098)" fill="#e6d3cc"/>
        <path id="Caminho_139" data-name="Caminho 139" d="M180.762,283.777c-2.316,6.082-7.211,5.888-7.211,5.888h-7.363s-3.072-4.867-10.593-5.7a22.287,22.287,0,0,0-5.671.135l-.077.011c-9.993,1.48-8.063,5.149-8.033,5.244-.83-2.028-1.7-5.253-1.492-6.99.958-7.91,12.387-9.569,14.244-11.851s0-5.416,0-5.416c17.119-5.047,19.694.684,19.694.684.75-.1,2.674-1.212,3.491-1.217,0,0,.857,1.871,1.46,3.561C179.742,269.612,183.275,277.178,180.762,283.777Z" transform="translate(-119.878 -200.988)" fill="#2f4563"/>
        <path id="Caminho_140" data-name="Caminho 140" d="M173.669,233.164l2.533,23.55H142.864l-2.533-23.55Z" transform="translate(-119.888 -193.926)" fill="#ded1c5"/>
        <rect id="Retângulo_9" data-name="Retângulo 9" width="5.568" height="2.119" transform="translate(53.399 60.669)" fill="#ded1c5"/>
        <rect id="Retângulo_10" data-name="Retângulo 10" width="91.828" height="3.205" transform="translate(0 62.788)" fill="#bc8551"/>
        <path id="Caminho_141" data-name="Caminho 141" d="M171.849,185.712s7.469,2.209,6.4,12.575-5.946,9.832-6.4,9.909-6.249.458-8.079-12.118S171.849,185.712,171.849,185.712Z" transform="translate(-125.38 -182.665)" fill="#eea886"/>
        <path id="Caminho_142" data-name="Caminho 142" d="M176.472,211.982a17.106,17.106,0,0,0,.266,5.566c.66,2.135-8.7,2.193-8.695.437.005-1.993.957-3.659.061-7.075S176.472,211.982,176.472,211.982Z" transform="translate(-126.444 -188.358)" fill="#eea886"/>
        <path id="Caminho_143" data-name="Caminho 143" d="M169.752,190.136s4.059,6.456,8.331,7.953c0,0,2.332-10.832-7.3-13.1s-8.125,10.943-7.406,14.466A28.612,28.612,0,0,1,169.752,190.136Z" transform="translate(-125.212 -182.467)" fill="#fccca2"/>
        <path id="Caminho_144" data-name="Caminho 144" d="M169.574,213.285a5.054,5.054,0,0,0,6.735.321s-.312,1.968-3.031,2.223S169.574,213.285,169.574,213.285Z" transform="translate(-126.806 -189.223)" fill="#a77860"/>
        <path id="Caminho_145" data-name="Caminho 145" d="M164.766,189.019s2.137-4.137,5.744-4.322a7.121,7.121,0,0,1,5.752,2.945,6.134,6.134,0,0,0-5.749-3.523C166.175,184.119,164.766,189.019,164.766,189.019Z" transform="translate(-125.669 -182.323)" fill="#23344a"/>
        <path id="Caminho_146" data-name="Caminho 146" d="M177.452,219.225s-.133,7.175-5.822,7.388-4.506-6.881-4.506-6.881A19.767,19.767,0,0,1,177.452,219.225Z" transform="translate(-126.202 -190.529)" fill="#eea886"/>
        <rect id="Retângulo_11" data-name="Retângulo 11" width="2.359" height="73.631" transform="translate(89.469 65.993)" fill="#807066"/>
        <rect id="Retângulo_12" data-name="Retângulo 12" width="2.358" height="73.631" transform="translate(0 65.993)" fill="#807066"/>
      </g>
      <g id="Grupo_130" data-name="Grupo 130" transform="translate(290.382 64.681)">
        <path id="Caminho_147" data-name="Caminho 147" d="M478.324,182.973s7.306,2.144,6.859,12.076S478.324,182.973,478.324,182.973Z" transform="translate(-448.374 -153.943)" fill="#eea886"/>
        <g id="Grupo_124" data-name="Grupo 124" transform="translate(28.933 29.03)">
          <path id="Caminho_148" data-name="Caminho 148" d="M477.336,182.973s.564.766-.141,5.707.631,7.008.79,9.064,2.571,15.338,2.637,15.925.389,7.656,1.33,9.532,7.855,12.507,7.948,13.037,3.358-1.851,3.358-1.851-6.209-12.917-6.611-14.191c-.5-1.581-2.029-5.5-2.122-7.548-.229-5.011.224-16.647.049-19.182C484.243,188.722,480.5,183.727,477.336,182.973Z" transform="translate(-476.991 -182.973)" fill="#eea886"/>
        </g>
        <g id="Grupo_127" data-name="Grupo 127" transform="translate(34.896 71.435)">
          <g id="Grupo_126" data-name="Grupo 126">
            <g id="Grupo_125" data-name="Grupo 125">
              <path id="Caminho_149" data-name="Caminho 149" d="M488.5,238.518s1.088,2.39,1.731,2.538,1.409.944,1.96,1.189,2.283.378,2.75.83a17.34,17.34,0,0,0,1.347,2.114c.428.334,1.374.908,1.081,1.267s-1.276.078-1.276.078a.7.7,0,0,1,.212.724c-.308.773-.827.807-.827.807s.166.579-.044.867a1.4,1.4,0,0,1-.964.653,1.328,1.328,0,0,1-.445.8,1.182,1.182,0,0,1-1.151.193s-.515.711-.989.573a4.238,4.238,0,0,1-1.091-.7,16.22,16.22,0,0,1-3.59-5.49,19.569,19.569,0,0,0-2.4-4.628Z" transform="translate(-484.803 -238.518)" fill="#eea987"/>
            </g>
          </g>
        </g>
        <rect id="Retângulo_13" data-name="Retângulo 13" width="20.584" height="34.35" transform="matrix(0.63, 0.777, -0.777, 0.63, 45.622, 52.212)" fill="#214361"/>
        <g id="Grupo_129" data-name="Grupo 129" transform="translate(39.369 76.879)">
          <g id="Grupo_128" data-name="Grupo 128">
            <path id="Caminho_150" data-name="Caminho 150" d="M497.341,247.9s-2.068-2.3-3.1-2.254-.328.915-.328.915-.681-.873-1.413-.411.141,1.438.141,1.438a.852.852,0,0,0-1.231.2c-.542.727.362,1.373.362,1.373s-1.365-.2-1.072.912a4.884,4.884,0,0,0,2.525,2.8s.567.158,1.041-.578a1.191,1.191,0,0,0,1.625-.989s1.492-.344,1.018-1.535A1.068,1.068,0,0,0,497.341,247.9Z" transform="translate(-490.661 -245.649)" fill="#db9c7c"/>
          </g>
        </g>
        <path id="Caminho_151" data-name="Caminho 151" d="M466.318,144.963s-10.566-.879-10.276,10.235,2.051,12.786-.007,20.639,10.3-4.461,10.3-4.461Z" transform="translate(-443.046 -144.947)" fill="#fccca2"/>
        <path id="Caminho_152" data-name="Caminho 152" d="M450.853,234.4s-3.89,4.958-5.263,8.24-3.662,10.47-3.357,16.037,2.135,16.021,1.6,18.385-1.066,7.249-1.639,8.926-2.861,6.56-3.091,11.595,3.206,27.158,3.052,29.217,3.891.839,3.891.839,1.372-19.986,2.135-23.419,1.678-15.1,2.366-15.943,2.564-9.535,2.272-10.909,7.492-21.971,7.949-26.09S472.7,234.4,472.7,234.4A35.658,35.658,0,0,0,450.853,234.4Z" transform="translate(-439.093 -165.706)" fill="#eea987"/>
        <path id="Caminho_153" data-name="Caminho 153" d="M474.1,234a23.2,23.2,0,0,0,.427,2.841c.229.763,5.493,20.217,6.027,27.693a147.775,147.775,0,0,0,2.135,15.413,33.093,33.093,0,0,1-.686,8.311c-.457,1.373,2.29,33.794,2.518,34.557s-1.832.992-3.28.762-8.773-23.8-8.315-27.767.915-12.426-.382-15.864-12.968-28.306-13.045-29.832S454.451,222.312,474.1,234Z" transform="translate(-443.775 -165.308)" fill="#eea987"/>
        <path id="Caminho_154" data-name="Caminho 154" d="M446.462,353.581a16.331,16.331,0,0,0,.787,3.352c.411.718,1.538,4.378,2.053,5.062s1.642,5.813,0,6.429-5.508,1.642-6.807-.41a8.441,8.441,0,0,1-1.266-5.678c.206-1.573,1.766-8.795,1.744-9.508S446.462,353.581,446.462,353.581Z" transform="translate(-439.581 -194.079)" fill="#eea987"/>
        <path id="Caminho_155" data-name="Caminho 155" d="M448.6,363.034s.176,3.987-2.834,3.987-4.345-3.628-4.345-3.628-1.025,1.781,0,5.578,5.3,3.009,6.26,2.872S453.181,370.5,448.6,363.034Z" transform="translate(-439.537 -196.54)" fill="#fff"/>
        <path id="Caminho_156" data-name="Caminho 156" d="M490.314,349.185s2.128,3.806,3.39,4.577c1.575.962,4.63,4.044,5.7,4.186s4.9.822,4.164,2.989c-.608,1.774-9.759,1.521-10.791.631s-4.119-4.083-5.365-4.013-.782,4.607-.782,4.607h-1.353s-.473-4.413-.53-5.171c-.169-2.244,1.433-3.9,1.5-5.177s.144-2.238.144-2.238Z" transform="translate(-449.89 -193.264)" fill="#fff"/>
        <path id="Caminho_157" data-name="Caminho 157" d="M499.305,357.771s-3.018,1.043-5.339-.291-6.778-3.361-8.353-3.376c0,0,.857-2.629.876-2.922s.111-1.677.111-1.677l3.9-.624a33.783,33.783,0,0,0,3.639,4.582A63.109,63.109,0,0,1,499.305,357.771Z" transform="translate(-450.098 -193.192)" fill="#eea987"/>
        <path id="Caminho_158" data-name="Caminho 158" d="M473.43,234.319s1.086,4.519,1.486,5.836,2.972,21.731,3.6,34.5c0,0-15.39,5.834-36.559,4.862,0,0-.514-23.458,1.429-30.094s5.468-12.848,8.126-14.762C453.881,232.957,473.43,234.319,473.43,234.319Z" transform="translate(-439.757 -165.968)" fill="#5779d4"/>
        <path id="Caminho_159" data-name="Caminho 159" d="M477.8,195.007c-.172,2.69-1.273,4.41-1.5,5.382s0,3.2-.286,5.437-1.144,12.872-.857,15.905-20.815,1.662-22.415.747c0,0,3.553-6.354,3.648-8.987.032-.9.573-3.718-.916-5.778-.785-1.087-2.242-4.548-3.7-7.078h0c-.563-.982-1.154-1.96-1.566-2.688h0a10.132,10.132,0,0,1-.836-2.077s-.939-11.672,1.634-12.987a13.109,13.109,0,0,1,6.466-1.66,18.315,18.315,0,0,0,4.177-.629l5.891.629a13.176,13.176,0,0,0,3.568,1.089c1.487.114,3.3,3.345,4.2,5.686C476.064,189.928,477.977,192.317,477.8,195.007Z" transform="translate(-441.487 -153.38)" fill="#e8e8e8"/>
        <path id="Caminho_160" data-name="Caminho 160" d="M452.079,182s-4.664.387-6.419,4.674-1.605,8.639-1.985,10.222-.937,10.754-1.336,12.11a76.5,76.5,0,0,0-2.08,12.719c-.306,5.081.45,15.8.45,15.8l2.584-1.256s2.3-15.887,3.3-19.247c.853-2.871.853-7.757,1.332-9.521s3.407-12.38,3.878-13.455C452.528,192.388,456.087,181.942,452.079,182Z" transform="translate(-439.352 -153.711)" fill="#eea886"/>
        <path id="Caminho_161" data-name="Caminho 161" d="M465.782,146.41a8.98,8.98,0,0,1,10.309,7.1,21.874,21.874,0,0,1-.286,3.436c-.286,1.53,1.536,5.738,1.215,5.992a9.643,9.643,0,0,1-1.718.692s-.99,4.937-2.668,5.087a13.948,13.948,0,0,1-11.809-6.015C457.167,157.124,455.207,148.141,465.782,146.41Z" transform="translate(-443.543 -145.269)" fill="#eea886"/>
        <path id="Caminho_162" data-name="Caminho 162" d="M471.254,171.781s-.128.691-.249,1.708c-.061.521-.121,1.125-.159,1.764a11.832,11.832,0,0,0,.553,5.124s-3.286,2-6.8-2.89c0,0,.347-6.067-1.673-9.292S471.254,171.781,471.254,171.781Z" transform="translate(-444.669 -150.241)" fill="#eea886"/>
        <path id="Caminho_163" data-name="Caminho 163" d="M475.882,153.193a23.849,23.849,0,0,1-8.118,4.477c-4.174,1.075-6.385,5.763-6.385,5.763s-7.386-7.367-2.929-14.517S475.874,144.954,475.882,153.193Z" transform="translate(-443.334 -144.948)" fill="#fccca2"/>
        <path id="Caminho_164" data-name="Caminho 164" d="M471.771,174.632c-.061.521-.121,1.125-.159,1.764a18.444,18.444,0,0,1-5.711-4.235A20.964,20.964,0,0,0,471.771,174.632Z" transform="translate(-445.435 -151.385)" fill="#a77860"/>
        <path id="Caminho_165" data-name="Caminho 165" d="M466.976,161.651s-4.271,11.483-3.759,14.247a15.045,15.045,0,0,0-6.285.841S458.877,156.253,466.976,161.651Z" transform="translate(-443.313 -148.684)" fill="#fccca2"/>
        <path id="Caminho_166" data-name="Caminho 166" d="M463.3,180.887s1.406,8.611,6.613,7.64,1.257-7.283,1.257-7.283S468.855,179.306,463.3,180.887Z" transform="translate(-444.819 -153.302)" fill="#eea886"/>
        <path id="Caminho_167" data-name="Caminho 167" d="M443.429,252.506a22.651,22.651,0,0,0,1.053,2.735,40.254,40.254,0,0,1,.8,5.768c.014.492-.332.226-.523-.084-.109-.179-.522-1.719-.875-2.529-.3-.679-.525-.924-.631-.691a15.3,15.3,0,0,0,.249,4.38c.36,1.221.3,4.1-.388,3.739s-2.6-5.423-2.621-7.381a38.4,38.4,0,0,1,.282-4.324Z" transform="translate(-439.424 -170.392)" fill="#eea886"/>
      </g>
    </g>
  </g>
</svg>
