<svg xmlns="http://www.w3.org/2000/svg" width="34" height="34" viewBox="0 0 34 34">
  <g id="Grupo_149" data-name="Grupo 149" transform="translate(-151.255 -3326)">
    <path id="Caminho_201" data-name="Caminho 201" d="M242.254,210A3.254,3.254,0,1,1,239,206.746,3.254,3.254,0,0,1,242.254,210Z" transform="translate(-70.745 3133)" fill="#999eb2"/>
    <g id="Grupo_146" data-name="Grupo 146">
      <path id="Caminho_202" data-name="Caminho 202" d="M246.61,204.243a3.235,3.235,0,0,0-1.853-1.853,5.435,5.435,0,0,0-1.812-.336c-1.03-.047-1.338-.057-3.945-.057s-2.915.01-3.945.057a5.435,5.435,0,0,0-1.812.336,3.243,3.243,0,0,0-1.853,1.853,5.385,5.385,0,0,0-.336,1.813c-.047,1.029-.057,1.338-.057,3.944s.01,2.915.057,3.945a5.377,5.377,0,0,0,.336,1.812,3.228,3.228,0,0,0,1.853,1.853,5.383,5.383,0,0,0,1.812.336c1.03.047,1.338.057,3.945.057s2.915-.01,3.944-.057a5.385,5.385,0,0,0,1.813-.336,3.231,3.231,0,0,0,1.853-1.853,5.429,5.429,0,0,0,.336-1.812c.047-1.03.057-1.338.057-3.945s-.01-2.915-.057-3.944A5.385,5.385,0,0,0,246.61,204.243ZM239,215.013A5.013,5.013,0,1,1,244.013,210,5.012,5.012,0,0,1,239,215.013Zm5.211-9.052a1.172,1.172,0,1,1,1.171-1.172A1.172,1.172,0,0,1,244.211,205.961Z" transform="translate(-70.745 3133)" fill="#999eb2"/>
      <path id="Caminho_203" data-name="Caminho 203" d="M239,193a17,17,0,1,0,17,17A17,17,0,0,0,239,193Zm9.7,21.025a7.158,7.158,0,0,1-.454,2.369,4.992,4.992,0,0,1-2.855,2.855,7.184,7.184,0,0,1-2.369.454c-1.041.047-1.374.059-4.025.059s-2.983-.012-4.025-.059a7.19,7.19,0,0,1-2.369-.454,4.992,4.992,0,0,1-2.855-2.855,7.184,7.184,0,0,1-.454-2.369c-.048-1.041-.059-1.374-.059-4.025s.011-2.984.059-4.025a7.133,7.133,0,0,1,.454-2.369,4.992,4.992,0,0,1,2.855-2.855,7.184,7.184,0,0,1,2.369-.454c1.041-.047,1.374-.059,4.025-.059s2.984.012,4.025.059a7.184,7.184,0,0,1,2.369.454,4.992,4.992,0,0,1,2.855,2.855,7.133,7.133,0,0,1,.454,2.369c.048,1.041.059,1.374.059,4.025S248.751,212.984,248.7,214.025Z" transform="translate(-70.745 3133)" fill="#999eb2"/>
    </g>
  </g>
</svg>
