<svg xmlns="http://www.w3.org/2000/svg" width="117.045" height="55" viewBox="0 0 117.045 55"><defs><style>.a{fill:#007ac2;}</style></defs><path class="a" d="M67.238,6.051H79.72L81.042,0H44.794L43.5,6.051H67.238Z"/><path class="a" d="M67.238,15.144H77.753l1.322-6.081H42.889l-1.353,6.081h25.7Z"/><path class="a" d="M36.8,36.905h8.547c.8,0,1.445-.06,2.091-.089a9.659,9.659,0,0,0,3.32-.686,6.8,6.8,0,0,0,2.767-2.266,5.683,5.683,0,0,0,1.045-3.219c0-1.848-1.261-3.041-3.843-3.488l.061-.06c2.89-.686,4.581-2.087,5.1-4.233a5.515,5.515,0,0,0,.092-.954,3.141,3.141,0,0,0-.892-2.3A5.508,5.508,0,0,0,52.3,18.3a21.662,21.662,0,0,0-3.6-.179H40.92L37.262,34.7Zm8.608-15.352h2.951A2.4,2.4,0,0,1,49.99,22a1.51,1.51,0,0,1,.369,1.61,2.484,2.484,0,0,1-1.414,1.848,5.915,5.915,0,0,1-1.506.238H44.456ZM43.78,29.035h2.8a8.317,8.317,0,0,1,.892.03c1.137.179,1.629.686,1.629,1.58a2.27,2.27,0,0,1-.062.626,2.584,2.584,0,0,1-1.6,1.878,4.654,4.654,0,0,1-1.691.268H42.8Z"/><path class="a" d="M11.591,17.648A11.141,11.141,0,0,0,4.95,19.466a6.5,6.5,0,0,0-2.8,4.054,6.068,6.068,0,0,0-.123,1.222q0,2.907,3.782,3.935L10.3,29.9c.922.239,1.353.686,1.353,1.312a3.146,3.146,0,0,1-.031.507c-.338,1.4-1.445,2.116-3.382,2.116-1.845,0-2.767-.686-2.767-2.027a2.436,2.436,0,0,1,.154-.865H.184A6.515,6.515,0,0,0,0,32.523a4.435,4.435,0,0,0,.738,2.564c1.076,1.49,3.29,2.206,6.61,2.206a13.309,13.309,0,0,0,6.426-1.461,6.717,6.717,0,0,0,3.474-4.591,4.493,4.493,0,0,0,.184-1.342,3.167,3.167,0,0,0-1.507-2.832,12.365,12.365,0,0,0-3.136-1.222l-3.413-.894c-1.076-.268-1.6-.775-1.6-1.49a.856.856,0,0,1,.061-.388,2.229,2.229,0,0,1,.984-1.461,3.626,3.626,0,0,1,2-.537c1.414,0,2.091.6,2.091,1.7a2.438,2.438,0,0,1-.154.865h5.473a7.035,7.035,0,0,0,.184-1.669C18.447,19.108,16.141,17.648,11.591,17.648Z"/><path class="a" d="M34.649,33.238H25.18l.83-3.965h8.762l.8-3.607h-8.7l.83-3.905h9.285l.277-1.341.523-2.236h-14.6l-4.12,18.721H33.849Z"/><path class="a" d="M86.485,18.154h-.43L75.048,35.593l-.8,1.312h5.38l2.152-3.786h7.748l.523,3.786h6.087L92.6,18.154Zm0,11.507H83.81l2.675-4.71,1.783-3.16H88.3l.8,7.87Z"/><path class="a" d="M116.245,21.761l.8-3.577h-14.6l-4.12,18.721h14.85l.768-3.667h-9.5l.892-3.965h8.731l.83-3.607H106.13l.892-3.905Z"/><path class="a" d="M73.141,26.591a4.426,4.426,0,0,0,1.906-1.818,4.427,4.427,0,0,0,.646-1.669,8.248,8.248,0,0,0,.184-1.461,3.546,3.546,0,0,0-.738-2.206l-.092-.089a3.87,3.87,0,0,0-2.521-1.133,24.356,24.356,0,0,0-3.044-.089H60.505l-4.12,18.751h5.38l1.629-7.3H65.64a3.382,3.382,0,0,1,1.6.268,1.37,1.37,0,0,0,.154.03,1.569,1.569,0,0,1,.461,1.222c0,.268-.062.8-.154,1.55a26.613,26.613,0,0,0-.277,4.263h5.841a36.714,36.714,0,0,1,.092-4.65c.062-.775.092-1.342.092-1.669a3.079,3.079,0,0,0-.646-2.116,4.057,4.057,0,0,0-2.859-.775l.062-.119A10.977,10.977,0,0,0,73.141,26.591Zm-4.735-.566a3.71,3.71,0,0,1-1.168.119,5.643,5.643,0,0,1-1.076.06H64.133l.984-4.621h2.121a6.56,6.56,0,0,1,2.06.238,1.383,1.383,0,0,1,1.076,1.431,1.549,1.549,0,0,1-.092.626A2.572,2.572,0,0,1,68.407,26.024Z"/><path class="a" d="M47.469,48.948H34.157L32.866,55H69.114L70.4,48.948H47.469Z"/><path class="a" d="M47.47,39.916H36.125l-1.291,6.022H71.02l1.353-6.022H47.47Z"/></svg>