<svg xmlns="http://www.w3.org/2000/svg" width="220.394" height="103.556" viewBox="0 0 220.394 103.556">
  <g id="Grupo_136" data-name="Grupo 136" transform="translate(-1198.48 -3511)">
    <path id="Caminho_184" data-name="Caminho 184" d="M1270.809,324.395h23.5L1296.8,313H1228.55l-2.43,11.395h44.689Z" transform="translate(54.271 3198)" fill="#999eb2"/>
    <path id="Caminho_185" data-name="Caminho 185" d="M1273.263,330.206h19.8l2.489-11.448h-68.13l-2.549,11.448h48.394Z" transform="translate(51.816 3209.306)" fill="#999eb2"/>
    <path id="Caminho_186" data-name="Caminho 186" d="M1221.86,359.876h16.092c1.511,0,2.726-.113,3.941-.169a18.231,18.231,0,0,0,6.253-1.289,12.69,12.69,0,0,0,5.216-4.267,10.69,10.69,0,0,0,1.956-6.06c0-3.482-2.371-5.725-7.231-6.567l.119-.113c5.453-1.292,8.624-3.93,9.6-7.972a10.115,10.115,0,0,0,.178-1.8,5.905,5.905,0,0,0-1.66-4.321,10.4,10.4,0,0,0-5.275-2.469,40.781,40.781,0,0,0-6.786-.338h-14.64l-6.875,31.205Zm16.21-28.906h5.571a4.439,4.439,0,0,1,3.052.842c.83.673,1.008,1.683.711,3.032a4.686,4.686,0,0,1-2.667,3.479,11.266,11.266,0,0,1-2.845.45h-5.6Zm-3.052,14.088h5.275a15.206,15.206,0,0,1,1.66.056c2.163.335,3.082,1.289,3.082,2.975a4.16,4.16,0,0,1-.119,1.177,4.887,4.887,0,0,1-3.023,3.538,8.7,8.7,0,0,1-3.171.5h-5.572Z" transform="translate(45.906 3220.611)" fill="#999eb2"/>
    <path id="Caminho_187" data-name="Caminho 187" d="M1220.321,324.212c-5.1,0-9.335,1.123-12.506,3.426a12.168,12.168,0,0,0-5.275,7.634,11.161,11.161,0,0,0-.237,2.3q0,5.472,7.113,7.409l8.475,2.3c1.719.448,2.549,1.289,2.549,2.469a5.8,5.8,0,0,1-.059.954c-.652,2.637-2.727,3.986-6.372,3.986-3.467,0-5.216-1.292-5.216-3.817a4.476,4.476,0,0,1,.3-1.627h-10.254a11.966,11.966,0,0,0-.356,2.972,8.409,8.409,0,0,0,1.393,4.828c2.045,2.806,6.194,4.155,12.447,4.155a25.017,25.017,0,0,0,12.091-2.75,12.56,12.56,0,0,0,6.549-8.644,8.263,8.263,0,0,0,.356-2.525,5.943,5.943,0,0,0-2.845-5.334,23.065,23.065,0,0,0-5.9-2.3l-6.431-1.683c-2.015-.507-2.993-1.461-2.993-2.806a2.076,2.076,0,0,1,.089-.732,4.265,4.265,0,0,1,1.867-2.75,6.816,6.816,0,0,1,3.764-1.01c2.667,0,3.941,1.123,3.941,3.2a4.475,4.475,0,0,1-.3,1.627h10.313a14.341,14.341,0,0,0,.326-3.141C1233.212,326.962,1228.885,324.212,1220.321,324.212Z" transform="translate(0 3220.015)" fill="#999eb2"/>
    <path id="Caminho_188" data-name="Caminho 188" d="M1239.958,352.9h-17.84l1.571-7.465H1240.2l1.482-6.792h-16.358l1.541-7.352h17.485l.533-2.525.978-4.211h-27.5L1210.59,359.8h27.857Z" transform="translate(23.778 3220.684)" fill="#999eb2"/>
    <path id="Caminho_189" data-name="Caminho 189" d="M1268.686,324.535h-.8l-20.744,32.832-1.482,2.471h10.135l4.031-7.13h14.58l1.008,7.13h11.439l-6.638-35.3Zm0,21.663h-5.038l5.038-8.867,3.349-5.951h.059l1.511,14.817Z" transform="translate(92.637 3220.649)" fill="#999eb2"/>
    <path id="Caminho_190" data-name="Caminho 190" d="M1294.7,331.289l1.511-6.736h-27.5L1260.95,359.8h27.976l1.422-6.9h-17.87l1.66-7.465h16.447l1.571-6.792h-16.506l1.689-7.352Z" transform="translate(122.659 3220.684)" fill="#999eb2"/>
    <path id="Caminho_191" data-name="Caminho 191" d="M1265.841,340.457a8.215,8.215,0,0,0,3.586-3.426,7.718,7.718,0,0,0,1.215-3.141,15.165,15.165,0,0,0,.355-2.75,6.562,6.562,0,0,0-1.393-4.155l-.178-.169a7.273,7.273,0,0,0-4.741-2.131,45.337,45.337,0,0,0-5.72-.169h-16.892l-7.764,35.3h10.135l3.052-13.75h4.238a6.258,6.258,0,0,1,2.993.5,2.7,2.7,0,0,0,.3.056,2.913,2.913,0,0,1,.859,2.3c0,.5-.118,1.514-.267,2.919a48.968,48.968,0,0,0-.534,8.025h10.995a67.523,67.523,0,0,1,.177-8.757c.119-1.458.178-2.525.178-3.141a5.858,5.858,0,0,0-1.215-3.986c-.978-.954-2.727-1.458-5.393-1.458l.118-.225A20.511,20.511,0,0,0,1265.841,340.457Zm-8.89-1.067a7.2,7.2,0,0,1-2.223.225,10.435,10.435,0,0,1-2.015.113h-3.823l1.867-8.7h3.971a12.344,12.344,0,0,1,3.882.448,2.619,2.619,0,0,1,2.045,2.7,2.844,2.844,0,0,1-.178,1.177A4.875,4.875,0,0,1,1256.951,339.39Z" transform="translate(70.352 3220.611)" fill="#999eb2"/>
    <path id="Caminho_192" data-name="Caminho 192" d="M1246.861,344.1H1221.79l-2.43,11.395h68.249l2.43-11.395h-43.178Z" transform="translate(40.998 3259.062)" fill="#999eb2"/>
    <path id="Caminho_193" data-name="Caminho 193" d="M1244.407,338.361H1223.04l-2.43,11.335h68.16l2.519-11.335h-46.882Z" transform="translate(43.452 3247.796)" fill="#999eb2"/>
  </g>
</svg>
