<svg xmlns="http://www.w3.org/2000/svg" width="34" height="34" viewBox="0 0 34 34">
  <path id="Caminho_204" data-name="Caminho 204" d="M283,193a17,17,0,1,0,17,17A17,17,0,0,0,283,193Zm7.762,13.255c.008.167.011.335.011.5a11.027,11.027,0,0,1-11.1,11.1h0a11.046,11.046,0,0,1-5.981-1.753,7.946,7.946,0,0,0,.931.054,7.825,7.825,0,0,0,4.846-1.67,3.907,3.907,0,0,1-3.645-2.71,3.908,3.908,0,0,0,1.762-.067,3.9,3.9,0,0,1-3.13-3.825v-.05a3.871,3.871,0,0,0,1.768.488,3.9,3.9,0,0,1-1.208-5.209,11.078,11.078,0,0,0,8.043,4.077,3.9,3.9,0,0,1,6.649-3.559,7.826,7.826,0,0,0,2.478-.947,3.924,3.924,0,0,1-1.716,2.159,7.791,7.791,0,0,0,2.24-.615A7.923,7.923,0,0,1,290.762,206.255Z" transform="translate(-266 -193)" fill="#999eb2"/>
</svg>
