<svg xmlns="http://www.w3.org/2000/svg" width="34" height="34" viewBox="0 0 34 34">
  <g id="Grupo_148" data-name="Grupo 148" transform="translate(-283.255 -3326)">
    <path id="Caminho_206" data-name="Caminho 206" d="M368.883,213.185,374.412,210l-5.529-3.185Z" transform="translate(-70.745 3133)" fill="#999eb2"/>
    <path id="Caminho_207" data-name="Caminho 207" d="M371,193a17,17,0,1,0,17,17A17,17,0,0,0,371,193Zm10.622,17.017a28.09,28.09,0,0,1-.437,5.111A2.662,2.662,0,0,1,379.312,217c-1.662.438-8.312.438-8.312.438s-6.633,0-8.312-.455a2.663,2.663,0,0,1-1.873-1.873,30.028,30.028,0,0,1,0-10.22,2.716,2.716,0,0,1,1.873-1.89c1.662-.438,8.312-.438,8.312-.438s6.65,0,8.312.455a2.663,2.663,0,0,1,1.873,1.873A26.614,26.614,0,0,1,381.622,210.017Z" transform="translate(-70.745 3133)" fill="#999eb2"/>
  </g>
</svg>
